<svg xmlns="http://www.w3.org/2000/svg" viewBox="0 0 50.82 45.99"><defs><style>.cls-1{fill:#fff;}</style></defs><title>Prism_Triangle_S</title><g id="logo"><path class="cls-1" d="M50.65,45.69l-.72-1.31-4.44-8-.62-1.13L39,24.5l-1.14-2.06L31.63,11.25,31,10.12,27,3l-.75-1.36L25.41,0l-.88,1.59L23.78,3l-4,7.17-.63,1.13L13,22.44,11.87,24.5,6,35.22l-.62,1.13-4.44,8L.17,45.69,0,46H50.82Zm-7-9.83a13.51,13.51,0,0,1-4.58,1.23A15,15,0,0,0,40.43,31c0-.36,0-.71,0-1.06Zm-9.39-17A14.83,14.83,0,0,0,26.38,16a13.62,13.62,0,0,1,4.08-4.06Zm-8.91-16,0-.06,0,.06,4.39,7.94a15.16,15.16,0,0,0-4.42,4.32A15,15,0,0,0,21,10.79Zm-5,9.08A13.77,13.77,0,0,1,24.45,16a14.9,14.9,0,0,0-7.92,2.87Zm-9.92,18c0,.35,0,.7,0,1.06a15,15,0,0,0,1.32,6.14,13.57,13.57,0,0,1-4.58-1.23Zm0,14.75H2.29L6.53,37A14.88,14.88,0,0,0,12.1,38.4,14.93,14.93,0,0,0,10.42,44.64Zm1.3,0A13.62,13.62,0,0,1,13,39.43a15.1,15.1,0,0,0,6.25,5.21Zm14.55,0a15.26,15.26,0,0,0,1.43-4.29,10.47,10.47,0,0,1-1.38.24,13.42,13.42,0,0,1-.91,2.88,14,14,0,0,1-.91-2.88,10.32,10.32,0,0,1-1.37-.24,14.65,14.65,0,0,0,1.43,4.29,13.72,13.72,0,0,1-10.67-6.25,15.09,15.09,0,0,0,4.3-1,9.51,9.51,0,0,1-.85-1,13,13,0,0,1-2.87.67,14.12,14.12,0,0,1,2-2.12,11.11,11.11,0,0,1-.5-1.29,15.09,15.09,0,0,0-3,3.2,13.42,13.42,0,0,1-.24-11.21c.08-.2.15-.4.24-.59,0,0,0,0,.05.07A15,15,0,0,0,16,28.2a11.26,11.26,0,0,1,.46-1.31A13.24,13.24,0,0,1,14,24.12a13.31,13.31,0,0,1,3.62.8,10,10,0,0,1,.9-1.05,15,15,0,0,0-4.12-1,13.72,13.72,0,0,1,9.87-5.57,14.6,14.6,0,0,0-1.16,4A9.76,9.76,0,0,1,24.41,21a13.5,13.5,0,0,1,1-3.29,14,14,0,0,1,1,3.29,10,10,0,0,1,1.35.25,15.33,15.33,0,0,0-1.16-4,13.72,13.72,0,0,1,9.87,5.57,14.82,14.82,0,0,0-4.12,1,11.21,11.21,0,0,1,.89,1.05,13.3,13.3,0,0,1,3.63-.8,13.91,13.91,0,0,1-2.47,2.78,8,8,0,0,1,.46,1.3,15.31,15.31,0,0,0,2.88-3.08s0,0,0-.07c.09.19.16.4.25.59a13.47,13.47,0,0,1-.25,11.21,15.09,15.09,0,0,0-3-3.2,9.57,9.57,0,0,1-.5,1.29,13.2,13.2,0,0,1,2,2.12,13.18,13.18,0,0,1-2.87-.67,9.42,9.42,0,0,1-.84,1,14.94,14.94,0,0,0,4.3,1A13.74,13.74,0,0,1,26.27,44.64Zm5.27,0a15,15,0,0,0,6.25-5.21,13.44,13.44,0,0,1,1.31,5.21Zm8.87,0a15.09,15.09,0,0,0-1.69-6.24A14.93,14.93,0,0,0,44.3,37l4.24,7.67Z"/><path class="cls-1" d="M25.41,22a8.82,8.82,0,1,0,8.82,8.82A8.83,8.83,0,0,0,25.41,22Zm-1.17,2.38a7.77,7.77,0,0,1,1-1.16l.16-.14.17.14a6.84,6.84,0,0,1,1,1.15,7.34,7.34,0,0,1,1,2h0a6.63,6.63,0,0,1,.3,1.63,5.42,5.42,0,0,1,0,.9l0,.28-.78-.2-.08,0v-.2a6.09,6.09,0,0,0-.65-3,7,7,0,0,0-.81-1.28l-.09-.1-.1.09a4.76,4.76,0,0,0-.88,1.28,6,6,0,0,0-.61,2.12,6.57,6.57,0,0,0,0,1.25c0,.19.05.38.09.58a6.5,6.5,0,0,0,1,2.37l.12.16-.6.63-.17-.23a7.19,7.19,0,0,1-.71-1.19,1,1,0,0,0-.06-.16,7.1,7.1,0,0,1-.51-1.7A7.45,7.45,0,0,1,23,28v0A6.94,6.94,0,0,1,24.24,24.37Zm.7,9.79-.46.28a7.5,7.5,0,0,1-1.49.7,6.72,6.72,0,0,1-1.67.29c-.15,0-.3,0-.45,0a7.05,7.05,0,0,1-1.76-.25l-.43-.1-.19-.07,0-.2a6,6,0,0,1,1.09-2.48A6.94,6.94,0,0,1,22.29,30l.25-.11.24.86-.18.09a6.63,6.63,0,0,0-1.24.89,6,6,0,0,0-1.72,2.52l-.05.13.13,0a4.68,4.68,0,0,0,.54.1,4.8,4.8,0,0,0,.67,0,6,6,0,0,0,1.9-.35l.37-.13a6.13,6.13,0,0,0,1.67-1.05,6.51,6.51,0,0,0,.77-.8,7.14,7.14,0,0,0,.8-1.26l.09-.19.83.23-.09.23v0s-.05.08-.07.13A6.31,6.31,0,0,1,26,33.2,6.91,6.91,0,0,1,24.94,34.16Zm6.78,1.06a6.72,6.72,0,0,1-1.75.24c-.16,0-.32,0-.47,0a7.23,7.23,0,0,1-1.67-.3,6.87,6.87,0,0,1-1.48-.68l-.22-.12-.26-.17.32-.28.37-.33.15.1a6.15,6.15,0,0,0,.92.47,3.16,3.16,0,0,0,.43.16,5.16,5.16,0,0,0,1.5.28h.24l.77,0h0l.53,0h.18l-.06-.17a6.41,6.41,0,0,0-1.74-2.6,4.4,4.4,0,0,0-.52-.43,6,6,0,0,0-3.46-1.12c-.2,0-.41,0-.61,0h-.27L24.57,30a.64.64,0,0,1,0-.07,2.61,2.61,0,0,0-.06-.33l-.06-.25.26,0a7,7,0,0,1,.8-.05,6.23,6.23,0,0,1,1.22.12c.25,0,.49.12.73.19a6.8,6.8,0,0,1,3.79,2.76,7.43,7.43,0,0,1,1.06,2.46l0,.21-.2.07C32,35.16,31.85,35.18,31.72,35.22Z"/></g></svg>