<svg xmlns="http://www.w3.org/2000/svg" viewBox="0 0 113.37 102.59"><defs><style>.cls-1{fill:#fff;}</style></defs><title>Prism_Triangle_L</title><g id="logo"><path class="cls-1" d="M59.71,89.93a3,3,0,1,1-3-3,3,3,0,0,1,3,3"/><path class="cls-1" d="M70.33,74.25a21.5,21.5,0,0,1,2.81,2.67,4.08,4.08,0,0,1,1.08-.38,23.1,23.1,0,0,0-3.52-3.33c-.11.35-.24.7-.37,1"/><path class="cls-1" d="M67.37,79a24.22,24.22,0,0,0,3.47,1.13,4.49,4.49,0,0,1,.26-1,21.27,21.27,0,0,1-3-.94c-.23.29-.48.56-.73.83"/><path class="cls-1" d="M45.88,79c-.25-.26-.49-.54-.73-.82a21.44,21.44,0,0,1-3,.92,4.43,4.43,0,0,1,.25,1A24.19,24.19,0,0,0,45.88,79"/><path class="cls-1" d="M39.12,76.57a3.89,3.89,0,0,1,1.06.41,22,22,0,0,1,2.74-2.64c-.13-.34-.26-.68-.37-1a23.49,23.49,0,0,0-3.43,3.26"/><path class="cls-1" d="M56.61,51.12a3,3,0,1,0-3-3,3,3,0,0,0,3,3"/><path class="cls-1" d="M72,57.36a3,3,0,1,0,3-3,3,3,0,0,0-3,3"/><path class="cls-1" d="M38.2,60.39a3,3,0,1,0-3-3,3,3,0,0,0,3,3"/><path class="cls-1" d="M40.24,61a4,4,0,0,1-1.05.42,24.18,24.18,0,0,0,3.37,3.2c.11-.35.25-.7.38-1A22.73,22.73,0,0,1,40.24,61"/><path class="cls-1" d="M45.93,58.93a23.14,23.14,0,0,0-3.54-1.13,4.44,4.44,0,0,1-.23,1,22.21,22.21,0,0,1,3,.94c.23-.29.48-.56.73-.83"/><path class="cls-1" d="M36.13,77a21.55,21.55,0,0,1-1.5-9.28A20.81,20.81,0,0,1,36.11,61a4.47,4.47,0,0,1-.89-.66A22.65,22.65,0,0,0,33.56,69a22.42,22.42,0,0,0,1.69,8.71,4.31,4.31,0,0,1,.88-.64"/><path class="cls-1" d="M75,77.67a3,3,0,1,0,3,3,3,3,0,0,0-3-3"/><path class="cls-1" d="M41.23,80.69a3,3,0,1,0-3,3,3,3,0,0,0,3-3"/><path class="cls-1" d="M57.71,74.24l-.27-.18.84-.75.16.1a8.38,8.38,0,0,0,4.19,1.34H63c.38,0,.75,0,1.14,0l.76,0h.39l-.13-.37a9.07,9.07,0,0,0-3.31-4.44,8.62,8.62,0,0,0-5.07-1.65c-.3,0-.6,0-.9,0h-.32l-.06-.2a.2.2,0,0,1,0-.09c0-.16-.06-.32-.1-.48l-.06-.27.28,0a8.65,8.65,0,0,1,1.15-.08A10.2,10.2,0,0,1,62.8,69.2a10,10,0,0,1,3.69,5.87l.05.23-.21.07a9.48,9.48,0,0,1-3.11.5,9.93,9.93,0,0,1-5.51-1.63M55.87,74A10.06,10.06,0,0,1,50,75.88a9.93,9.93,0,0,1-3.14-.51l-.21-.06,0-.21a10.38,10.38,0,0,1,5.41-6.95l.28-.12.29,1.07-.18.09a9,9,0,0,0-4.36,5l-.1.29.3.08a7.13,7.13,0,0,0,1.76.21,9.06,9.06,0,0,0,8.09-5.26l.09-.19,1,.28-.11.27A9.71,9.71,0,0,1,55.87,74m-2.72-8.92a10.15,10.15,0,0,1,3.28-6.82l.17-.15.17.15a10,10,0,0,1,3.32,8.13l0,.3L59,66.41v-.2A8.86,8.86,0,0,0,56.87,60l-.2-.24-.22.22a8.23,8.23,0,0,0-2.18,5,9.09,9.09,0,0,0,1.66,6.15l.12.18-.74.77-.18-.24a10.15,10.15,0,0,1-2-6.69m17,3.94a13.5,13.5,0,1,0-13.5,13.5A13.52,13.52,0,0,0,70.11,69"/><path class="cls-1" d="M55,52a4.06,4.06,0,0,1-1-.59,22.37,22.37,0,0,0-.68,3.27c.37-.09.75-.15,1.13-.21A24.19,24.19,0,0,1,55,52"/><path class="cls-1" d="M58.35,51.94a23.51,23.51,0,0,1,.54,2.57c.39.06.77.13,1.14.22a24,24,0,0,0-.71-3.41,4.32,4.32,0,0,1-1,.62"/><path class="cls-1" d="M46.66,49.31a20.87,20.87,0,0,1,5.79-2,4.33,4.33,0,0,1,.4-1.11A22.63,22.63,0,0,0,45.1,49a23.33,23.33,0,0,0-5.47,4.43,4.53,4.53,0,0,1,1,.48,22,22,0,0,1,6.07-4.56"/><path class="cls-1" d="M58.4,86.07a4.3,4.3,0,0,1,.93.59A23.55,23.55,0,0,0,60,83.3c-.36.09-.72.16-1.08.22a22.27,22.27,0,0,1-.54,2.55"/><path class="cls-1" d="M68.33,87.73a21.31,21.31,0,0,1-7.49,2.92,4.22,4.22,0,0,1-.35,1.11,23,23,0,0,0,13.13-7.09,3.66,3.66,0,0,1-1-.48,21.7,21.7,0,0,1-4.32,3.54"/><path class="cls-1" d="M53.36,83.35a24.44,24.44,0,0,0,.68,3.3,4.26,4.26,0,0,1,.93-.58,24.31,24.31,0,0,1-.53-2.53c-.37-.05-.73-.11-1.08-.19"/><path class="cls-1" d="M45,87.73a21.5,21.5,0,0,1-4.38-3.61,4.07,4.07,0,0,1-.94.51,22.94,22.94,0,0,0,13.16,7.13,4.24,4.24,0,0,1-.36-1.11A21.26,21.26,0,0,1,45,87.73"/><path class="cls-1" d="M66.71,49.31a22.06,22.06,0,0,1,6,4.5,4.35,4.35,0,0,1,1-.45A23,23,0,0,0,68.27,49a22.59,22.59,0,0,0-7.92-2.8,4,4,0,0,1,.41,1.12,20.86,20.86,0,0,1,5.95,2"/><path class="cls-1" d="M67.33,59c.25.27.49.54.72.82a22,22,0,0,1,3-.95,4.33,4.33,0,0,1-.24-1A23.11,23.11,0,0,0,67.33,59"/><path class="cls-1" d="M74.14,61.5a4.53,4.53,0,0,1-1.06-.4,21.39,21.39,0,0,1-2.77,2.61c.13.35.26.7.37,1.06a23.71,23.71,0,0,0,3.46-3.27"/><path class="cls-1" d="M35.88,84.22a4,4,0,0,1-.84-.74,23,23,0,0,0,0,16.11h1a23.77,23.77,0,0,1-1.41-6.77,21.48,21.48,0,0,1,1.25-8.6"/><path class="cls-1" d="M92.63,96.62a23.36,23.36,0,0,0,4.71-6.86,22.63,22.63,0,0,0,1.85-6.61l9.08,16.44H89a23.22,23.22,0,0,0,3.65-3m-14.28,3a23.11,23.11,0,0,0-.06-16.24,4.43,4.43,0,0,1-.83.79,21.51,21.51,0,0,1,1.28,8.68,23.77,23.77,0,0,1-1.41,6.77H65.58a20.89,20.89,0,0,1-5.5-4.31c-.47-.53-.9-1.09-1.35-1.67a4,4,0,0,1-1,.43,24.36,24.36,0,0,0,6,5.55H49.74A24.36,24.36,0,0,0,55.69,94a4.35,4.35,0,0,1-1-.42c-.44.57-.88,1.12-1.35,1.66a20.89,20.89,0,0,1-5.5,4.31H26.45a22,22,0,0,1-11.38-18L19.8,73A23,23,0,0,0,34,80.57a4,4,0,0,1,.17-1,21.29,21.29,0,0,1-6.84-2.07,21.92,21.92,0,0,1-7-5.44l6.09-11c.46-.26.92-.52,1.41-.75a21.93,21.93,0,0,1,6.28-1.83,4.48,4.48,0,0,1-.14-1,24.19,24.19,0,0,0-6.65,2L33.63,48a23.9,23.9,0,0,0,1.43,6.59,4.16,4.16,0,0,1,.84-.73l-.06-.16a21.72,21.72,0,0,1-1.23-7.47l5.69-10.3q.66.07,1.32.21a21.85,21.85,0,0,1,12.9,8l.18.24a4.12,4.12,0,0,1,1-.37,23.24,23.24,0,0,0-7-6.3,23.7,23.7,0,0,0-7.81-2.81l3.89-7a22.12,22.12,0,0,1,23.85,0l3.89,7a23.7,23.7,0,0,0-7.81,2.81,23.35,23.35,0,0,0-7,6.34,4.25,4.25,0,0,1,1,.39l.22-.3a21.85,21.85,0,0,1,12.9-8q.66-.14,1.32-.21l5.69,10.3a21.72,21.72,0,0,1-1.23,7.47l-.09.24a4.33,4.33,0,0,1,.82.78A23.73,23.73,0,0,0,79.74,48L86,59.36a24,24,0,0,0-6.79-2,4.33,4.33,0,0,1-.14,1,22.22,22.22,0,0,1,6.43,1.86c.49.23.95.49,1.41.75L93,72a21.92,21.92,0,0,1-7,5.44,21.13,21.13,0,0,1-7,2.09,4,4,0,0,1,.16,1A23.06,23.06,0,0,0,93.57,73l4.73,8.56a21.61,21.61,0,0,1-2,8.08,21.92,21.92,0,0,1-9.34,10Zm-73.25,0,9.08-16.44A22.78,22.78,0,0,0,16,89.77a22.9,22.9,0,0,0,8.36,9.82ZM56.69,6.22,67.63,26a22.45,22.45,0,0,0-10.84-2.75h-.25A22.38,22.38,0,0,0,45.74,26Zm42.4,70.53-1.86-3.37L95.6,70.44l-.6-1.1L93.37,66.4l-1.93-3.5L78.94,40.28l-5.36-9.7L56.69,0,39.79,30.58l-5.36,9.7L21.93,62.9,20,66.4l-1.63,2.94-.6,1.1-1.63,2.94-1.86,3.37L0,102.59H113.37Z"/><path class="cls-1" d="M78.74,67.74a21.43,21.43,0,0,1-1.53,9.35,4.09,4.09,0,0,1,.86.68A22.42,22.42,0,0,0,79.81,69a22.69,22.69,0,0,0-1.71-8.71,4.23,4.23,0,0,1-.87.71,20.8,20.8,0,0,1,1.51,6.79"/></g></svg>
