<svg xmlns="http://www.w3.org/2000/svg" viewBox="0 0 873 490.9"><defs><style>.a,.b{fill:none;stroke:#fff;stroke-miterlimit:10}.a{stroke-width:2px}.b{stroke-width:1.5px}</style></defs><path class="a" d="M2.8 6.4h85.5c55.4 0 82.9 29.3 82.9 88.4v20.3c0 58.5-22.1 93.7-85.4 93.7H67V340H2.8zM67 156.8h10.4c24.4 0 29.5-13.6 29.5-41.4v-23c0-21.6-5-35.5-26.4-35.5H67zM249.6 195v145h-64.1V6.4h83.2c55.9 0 83.6 24.5 83.6 82.9v12c0 47.5-19 61.6-33.3 68.4 20.7 10 30.5 25.3 30.5 71.8 0 32.3-.5 81 2.3 98.5h-62.1c-4.1-15.1-3.8-58.5-3.8-101.1 0-37.5-4.3-43.9-28.8-43.9zm.1-50.6h8c21.4 0 30.2-6.8 30.2-37.8V90.4c0-22.3-4.5-33.5-28.2-33.5h-10zM437 6.4V340h-64.1V6.4zM513.7 237.2v23.1c0 21.9 5.4 32.1 20.1 32.1s18.2-15.1 18.2-30.8c0-31.5-5.9-40.7-40-69.2-37.6-31.8-56.9-50.6-56.9-99.8 0-47.7 15.8-91.6 79-91.6 67.1 0 77 45.8 77 84v19.2h-60.6v-20c0-20.2-3.3-30.3-16-30.3S518.8 64.1 518.8 83s3.7 30 31.3 51.6c49.1 38.5 66.7 60.2 66.7 115.1 0 52.3-17.9 95.3-84.2 95.3-63.6 0-81.8-38.4-81.8-87.8v-20zM806.6 233.7c0-51.6.5-124.9 1.3-165.8h-1.7c-7 66.8-21.7 201.9-30.9 272.1h-54.4c-7.3-73-21.7-210.6-28.7-273h-2.1c.9 39.2 2.5 111.6 2.5 169.1V340h-58.2V6.4h92.1c8.7 63.4 18.5 146.7 22.3 191.9h1.3c5.2-48.3 16.3-118.4 26.5-191.9h91.8V340h-61.8z"/><path class="b" d="M.8 373.7h27.1c23.7 0 31.8 10.8 31.8 34.6v43.1c0 19.8-4.1 37.1-30.3 37.1H.8zm22.1 97h4.3c8.7 0 10.1-5.6 10.1-14.6v-51.4c0-8.5-1.9-13.1-10.3-13.1h-4.1zM98.9 438.6v49.9h-22V373.7h28.6c19.3 0 28.8 8.5 28.8 28.5v4.2c0 16.3-6.6 21.2-11.5 23.5 7.2 3.5 10.5 8.7 10.5 24.7 0 11.1-.2 27.9.8 33.9h-21.4c-1.4-5.2-1.3-20.1-1.3-34.8 0-12.9-1.5-15.1-9.9-15.1zm.1-17.4h2.7c7.4 0 10.4-2.3 10.4-13v-5.5c0-7.7-1.5-11.6-9.7-11.6H99zM197 437.8h-23.7v31.3H201l-2.6 19.4h-47.2V373.7h47v19.5h-24.9v25.2H197zM237 461.2l-2.8 27.3h-22.5l16.2-114.8h32.9l16.6 114.8h-22.9l-3.2-27.3zm12.4-19.5c-1.6-14.7-3.9-37-5-48h-.8c-.4 8-3.2 33.8-4.7 48zM349.9 451.9c0-17.7.2-42.9.5-57h-.6c-2.4 23-7.5 69.5-10.6 93.6h-18.7c-2.6-25.1-7.5-72.4-9.9-93.9h-.7c.2 13.5.8 38.4.8 58.1v35.8h-20V373.7h31.7c3 21.9 6.3 50.5 7.6 66h.5c1.8-16.6 5.6-40.7 9.1-66h31.6v114.8h-21.3zM417.2 373.7h47.6v19.5h-25.5v26.2h24.1v19.5h-24.1v49.6h-22.1zM495.6 461.2l-2.8 27.3h-22.5l16.2-114.8h32.9L536 488.5h-23l-3.1-27.3zm12.4-19.5c-1.6-14.7-3.9-37-5-48h-.9c-.3 8-3.1 33.8-4.6 48zM601.6 451v6.3c0 14.4-2.7 32.9-29 32.9-19.4 0-27.9-10.3-27.9-31.4v-56.3c0-20 10-30.5 28.4-30.5 24.2 0 28.1 16 28.1 31v7.2H579v-9.8c0-6.3-1.3-9.5-5.9-9.5s-6 3-6 9.5v60.7c0 6.1 1 10.3 6 10.3s6.1-3.5 6.1-10.8V451zM625.4 393.2h-16.7v-19.5h55.6v19.5h-16.9v95.3h-22zM731.2 404.4v53.3c0 22.8-10.7 32.5-30.8 32.5s-28.8-10-28.8-32.3v-54.1c0-22.1 12.2-31.8 29.8-31.8s29.8 9.5 29.8 32.4zm-37.3-2.5v58.7c0 7.1 2.4 10.8 7.4 10.8s7.4-3.4 7.4-10.9v-58.7c0-7.2-1.9-10.9-7.5-10.9s-7.3 3.4-7.3 11zM766.8 438.6v49.9h-22V373.7h28.6c19.3 0 28.8 8.5 28.8 28.5v4.2c0 16.3-6.6 21.2-11.5 23.5 7.2 3.5 10.5 8.7 10.5 24.7 0 11.1-.2 27.9.8 33.9h-21.4c-1.4-5.2-1.3-20.1-1.3-34.8 0-12.9-1.5-15.1-9.9-15.1zm.1-17.4h2.7c7.4 0 10.4-2.3 10.4-13v-5.5c0-7.7-1.5-11.6-9.7-11.6h-3.4zM828.8 488.5v-36.8a20.9 20.9 0 0 0-.8-5.9l-20.1-72.1h24c3.1 16.6 6.7 35.6 8.1 50.1h.7c1.9-13.8 5.6-33.2 8.6-50.1H872l-20.6 73.9a21.4 21.4 0 0 0-.5 5v35.9z"/></svg>
