<svg xmlns="http://www.w3.org/2000/svg" viewBox="0 0 873 490.9"><defs><style>.a,.b{fill:none;stroke:#fff;stroke-miterlimit:10;}.a{stroke-width:2px;}.b{stroke-width:1.5px;}</style></defs><title>tt</title><path class="a" d="M78.5,92.9H164c55.4,0,82.9,29.3,82.9,88.4v20.3c0,58.5-22.1,93.7-85.4,93.7H142.7V426.5H78.5Zm64.2,150.4h10.4c24.4,0,29.5-13.6,29.5-41.4v-23c0-21.6-5-35.5-26.4-35.5H142.7Z" transform="translate(-75.7 -86.5)"/><path class="a" d="M325.3,281.5v145H261.2V92.9h83.2c55.9,0,83.6,24.5,83.6,82.9v12c0,47.5-19,61.6-33.3,68.4,20.7,10,30.5,25.3,30.5,71.8,0,32.3-.5,81,2.3,98.5H365.4c-4.1-15.1-3.8-58.5-3.8-101.1,0-37.5-4.3-43.9-28.8-43.9Zm.1-50.6h8c21.4,0,30.2-6.8,30.2-37.8V176.9c0-22.3-4.5-33.5-28.2-33.5h-10Z" transform="translate(-75.7 -86.5)"/><path class="a" d="M512.7,92.9V426.5H448.6V92.9Z" transform="translate(-75.7 -86.5)"/><path class="a" d="M589.4,323.7v23.1c0,21.9,5.4,32.1,20.1,32.1s18.2-15.1,18.2-30.8c0-31.5-5.9-40.7-40-69.2-37.6-31.8-56.9-50.6-56.9-99.8,0-47.7,15.8-91.6,79-91.6,67.1,0,77,45.8,77,84v19.2H626.2v-20c0-20.2-3.3-30.3-16-30.3s-15.7,10.2-15.7,29.1,3.7,30,31.3,51.6c49.1,38.5,66.7,60.2,66.7,115.1,0,52.3-17.9,95.3-84.2,95.3-63.6,0-81.8-38.4-81.8-87.8v-20Z" transform="translate(-75.7 -86.5)"/><path class="a" d="M882.3,320.2c0-51.6.5-124.9,1.3-165.8h-1.7c-7,66.8-21.7,201.9-30.9,272.1H796.6c-7.3-73-21.7-210.6-28.7-273h-2.1c.9,39.2,2.5,111.6,2.5,169.1V426.5H710.1V92.9h92.1c8.7,63.4,18.5,146.7,22.3,191.9h1.3c5.2-48.3,16.3-118.4,26.5-191.9h91.8V426.5H882.3Z" transform="translate(-75.7 -86.5)"/><path class="b" d="M76.5,460.2h27.1c23.7,0,31.8,10.8,31.8,34.6v43.1c0,19.8-4.1,37.1-30.3,37.1H76.5Zm22.1,97h4.3c8.7,0,10.1-5.6,10.1-14.6V491.2c0-8.5-1.9-13.1-10.3-13.1H98.6Z" transform="translate(-75.7 -86.5)"/><path class="b" d="M174.6,525.1V575h-22V460.2h28.6c19.3,0,28.8,8.5,28.8,28.5v4.2c0,16.3-6.6,21.2-11.5,23.5,7.2,3.5,10.5,8.7,10.5,24.7,0,11.1-.2,27.9.8,33.9H188.4c-1.4-5.2-1.3-20.1-1.3-34.8,0-12.9-1.5-15.1-9.9-15.1Zm.1-17.4h2.7c7.4,0,10.4-2.3,10.4-13v-5.5c0-7.7-1.5-11.6-9.7-11.6h-3.4Z" transform="translate(-75.7 -86.5)"/><path class="b" d="M272.7,524.3H249v31.3h27.7L274.1,575H226.9V460.2h47v19.5H249v25.2h23.7Z" transform="translate(-75.7 -86.5)"/><path class="b" d="M312.7,547.7,309.9,575H287.4l16.2-114.8h32.9L353.1,575H330.2L327,547.7Zm12.4-19.5c-1.6-14.7-3.9-37-5-48h-.8c-.4,8-3.2,33.8-4.7,48Z" transform="translate(-75.7 -86.5)"/><path class="b" d="M425.6,538.4c0-17.7.2-42.9.5-57h-.6c-2.4,23-7.5,69.5-10.6,93.6H396.2c-2.6-25.1-7.5-72.4-9.9-93.9h-.7c.2,13.5.8,38.4.8,58.1V575h-20V460.2h31.7c3,21.9,6.3,50.5,7.6,66h.5c1.8-16.6,5.6-40.7,9.1-66h31.6V575H425.6Z" transform="translate(-75.7 -86.5)"/><path class="b" d="M492.9,460.2h47.6v19.5H515v26.2h24.1v19.5H515V575H492.9Z" transform="translate(-75.7 -86.5)"/><path class="b" d="M571.3,547.7,568.5,575H546l16.2-114.8h32.9L611.7,575h-23l-3.1-27.3Zm12.4-19.5c-1.6-14.7-3.9-37-5-48h-.9c-.3,8-3.1,33.8-4.6,48Z" transform="translate(-75.7 -86.5)"/><path class="b" d="M677.3,537.5v6.3c0,14.4-2.7,32.9-29,32.9-19.4,0-27.9-10.3-27.9-31.4V489c0-20,10-30.5,28.4-30.5,24.2,0,28.1,16,28.1,31v7.2H654.7v-9.8c0-6.3-1.3-9.5-5.9-9.5s-6,3-6,9.5v60.7c0,6.1,1,10.3,6,10.3s6.1-3.5,6.1-10.8v-9.6Z" transform="translate(-75.7 -86.5)"/><path class="b" d="M701.1,479.7H684.4V460.2H740v19.5H723.1V575h-22Z" transform="translate(-75.7 -86.5)"/><path class="b" d="M806.9,490.9v53.3c0,22.8-10.7,32.5-30.8,32.5s-28.8-10-28.8-32.3V490.3c0-22.1,12.2-31.8,29.8-31.8S806.9,468,806.9,490.9Zm-37.3-2.5v58.7c0,7.1,2.4,10.8,7.4,10.8s7.4-3.4,7.4-10.9V488.3c0-7.2-1.9-10.9-7.5-10.9S769.6,480.8,769.6,488.4Z" transform="translate(-75.7 -86.5)"/><path class="b" d="M842.5,525.1V575h-22V460.2h28.6c19.3,0,28.8,8.5,28.8,28.5v4.2c0,16.3-6.6,21.2-11.5,23.5,7.2,3.5,10.5,8.7,10.5,24.7,0,11.1-.2,27.9.8,33.9H856.3c-1.4-5.2-1.3-20.1-1.3-34.8,0-12.9-1.5-15.1-9.9-15.1Zm.1-17.4h2.7c7.4,0,10.4-2.3,10.4-13v-5.5c0-7.7-1.5-11.6-9.7-11.6h-3.4Z" transform="translate(-75.7 -86.5)"/><path class="b" d="M904.5,575V538.2a20.9,20.9,0,0,0-.8-5.9l-20.1-72.1h24c3.1,16.6,6.7,35.6,8.1,50.1h.7c1.9-13.8,5.6-33.2,8.6-50.1h22.7l-20.6,73.9a21.4,21.4,0,0,0-.5,5V575Z" transform="translate(-75.7 -86.5)"/></svg>