<svg xmlns="http://www.w3.org/2000/svg" viewBox="0 0 3890.8 1971.6"><defs><style>.a{fill:#fff;}</style></defs><title>Fox</title><path class="a" d="M1965,277.4c23.4-3.8,67.3-.9,98.1,21.5,33.6,25.2,60.7,67.2,56,115.8-6.5,58.8-20.6,96.2-71,137.3-61.6,50.4-121.4,53.2-149.4,51.3-19.6-1.8-75.7-14-106.5-64.4-19.6-34.6-13.1-83.1-7.5-104.6s41.1-78.5,77.6-107.4,80.3-46.7,102.7-49.5ZM732.1,1971.6v-77.5l449.3-50.4s-92.5-36.5-114.9-104.6c-24.3-72,33.6-143.9,80.3-152.3,63.5-12.1,146.7-18.7,146.7-18.7l82.2,7.5,1782.9,204.6v191.4Zm762.2-428.7,1165.6-135.4,272.7,103.7.9,187.7-1439.2-156Z"/><path class="a" d="M2852.3,0l124.2,1263.7s-2.8,21.4-17.7,24.2-17.8-12.1-17.8-12.1l-55.1-209.2-227-81.3-236.3,221.4,196.2,126.1-188.7,22.4L2323.6,1287l-83.1,88.7-181.2,21.5,157.9-164.4-242.9-140.1-114.8,17.8s99,28.9,139.1,62.6,47.6,69.1,38.3,127-72.8,103.6-72.8,103.6l-370.8,44.9-43-21.5s-55.1-28-57.9-87.8c-2.8-54.2,57.9-139.2,57.9-139.2l-94.3-27v84L1267.3,1286v65.4l170-22.4v76.6l-167.2,24.3,1,55.1L1159,1499.9V1238.4l-37.4,5.6v-55.1L2658.9,918.1,2871,997.5l-70.1-287.7-139.1-52.3-97.2,151.3-.9,82.2L2489,905.9V824.6l-63.5-63.5-82.2-18.6s17.7,11.2,24.3,14.9c20.5,15.9,26.1,31.7,26.1,57,0,34.5-45.7,53.2-45.7,53.2l77.5,50.5L2347,933.9l-88.7-45.7-.9,60.7L2191.1,961V783.6l-53.3-15.9s0,122.4-.9,167.2c-.9,34.6-38.3,43.9-38.3,43.9s-87.8,24.3-118.6,15-29.9-39.3-29.9-39.3V830.3L1923,812.6l-1,54.1-51.3,12.2.9,140.1-64.4,12.1.9-137.3-52.3,9.4-1-34.6-32.6-14v190.5l-61.7,11.2-85-73.7,1,88.7-59.8,11.2.9-159.7-46.7-14v42.9l-78.4,20.6v33.6l68.1-15v39.3l-68.1,14.9v30.8l76.5-12.1,1,27.1-135.4,24.3.9-135.5s-15.9-3.7-57.9-9.3c19.6,13.1,14.9,23.3,14.9,23.3l-30.8,30.9s-12.2-15.9-42-9.4c-23.4,4.7-33.7,27.1-33.7,48.6s13.1,50.4,43,45.8c26.2-4.7,39.2-30.9,39.2-30.9l36.5,18.7-18.7,27.1s-97.2,18.7-113,20.5c-32.7-12.1-40.2-40.1-41.1-66.3-2.8-50.4,29.9-85,29.9-85l-36.5-20.5V934L2659.9,594,2786,642.6l-50.5-202.7-103.7-34.6-.9,147.6-44.8,9.3V457.6c-1-36.4-9.4-43.9-22.4-44.8-22.5-.9-29,17.7-29,48.6v113l-52.3,11.2-.9-240L2179.8,218.5a403.6,403.6,0,0,1,31.8,34.6c37.3,45.8,55.1,95.3,41.1,182.1S2191,580.9,2191,580.9c-31.7,54.2-108.4,105.6-108.4,105.6s-183.9,43.9-234.4,48.5-113.9-41.1-145.7-72.8-49.5-72.9-58.8-113,18.7-150.4,18.7-150.4l-68.2-36.5s12.1,26.2,16.8,40.2,13.1,31.8,1.9,85c-6.6,38.3-28.1,61.6-28.1,61.6L1426.1,744.4l190.5-36.5v77.6l-445.5,99.9V835s269-306.4,284.9-328.8c24.2-33.6,33.6-63.5,2.8-87.8s-65.4-14-100,15c-30.8,26.1-46.7,84-46.7,84l-136.3,22.4,34.5-104.6c39.2-92.4,160.7-134.5,215.8-141,30.8-3.7,81.2,14,81.2,14l163.5,72.9s5.6-8.4,14-23.4c22.4-42,122.3-150.4,158.7-168.1,68.2-32.7,140.1-43.9,199.9-36.4,36.5,4.7,118.6,36.4,118.6,36.4l319.5,133.6-1-91.6,55.1-19.6,160.7,68.2L2630,1.9,1198.2,0s-235.4,1285.1-240,1313.2c-3.8,20.5-14,28.9-35.5,24.3-18.7-4.7-14-34.6-14-34.6L964.7,0H732.1V1860.5l124.3-15-1-311.9s2.8-25.2,26.2-22.4c21.5,1.9,45.7,3.7,55.1,6.5,14.9,4.7,20.5,15.9,19.6,32.7v280.2l117.7-14.9s-42-15.9-56.1-91.6c-3.7-23.3-6.5-59.7,24.3-109.2,30.8-47.7,90.6-66.4,111.2-69.2s1514.9-182.1,1514.9-182.1l265.2,105.6v-25.3s0-24.2,24.3-24.2c34.6,0,37.4,0,56-1,30.9,0,28.1,27.1,28.1,27.1l-1,266.2,117.7,12.1V0ZM2364.6,379.2l46.8-11.2v57l38.2-9.4v44.9l-38.2,12.1V602.3l-46.8,14ZM912.4,1445.8c-68.2-8.4-51.4-76.6-51.4-76.6l122.4,19.6S983.4,1453.3,912.4,1445.8Zm2069.7-71c-49.5,9.4-68.2-41.1-68.2-41.1l113-26.2C3026.9,1307.6,3044.7,1362.7,2982.1,1374.8Z"/><path class="a" d="M2016.4,788.3l53.2,27s.9,95.3.9,109.3-7.4,23.4-26.1,27.1-28,2.8-28-22.4v-141Zm248.4,5.6s27.1-2.8,36.4,0,14,12.1,12.2,24.3-10.3,15.8-17.8,17.7-30.8,6.6-30.8,6.6V793.9Zm199.9-93.4,88.7,18.7-30.8,47.6ZM1553.1,876.1l115.8,36.4-.9,75.7Zm107.4,363.3c14-11.2,66.3-36.4,111.2-39.2,53.2-3.8,95.2,3.7,124.2,27.1s30.8,51.3,12.1,75.6-32.7,36.4-75.6,52.3-102.8,17.7-129.9,11.2c-33.6-6.5-55.1-14-70-32.7-28-34.5,0-71.9,28-94.3Zm500.6-188.7,217.6,34.6-65.3,63.5-152.3-98.1Zm570.7-629.5L2701,301.7l-164.4-69.2V391.3s13.1-21.5,42.9-24.3,47.7,17.8,47.7,17.8Z"/></svg>