<svg xmlns="http://www.w3.org/2000/svg" viewBox="0 0 733 234.3"><defs><style>.a{fill:#fff;}.b{fill:none;}</style></defs><title>GlobalRoad</title><path class="a" d="M8,130.5v-.2c0-19.5,15.1-36,36.4-36,12.3,0,19.9,3.4,27.1,9.5l-7.9,9.3c-5.4-4.6-10.8-7.5-19.8-7.5-13,0-22.9,11.3-22.9,24.6v.2c0,14.3,9.6,24.9,24,24.9a28.7,28.7,0,0,0,17-5.3V137H44V126.3H74.1v29.3a45.2,45.2,0,0,1-29.4,10.9C22.5,166.4,8,150.8,8,130.5Z" transform="translate(-8 -8.9)"/><path class="a" d="M135.9,130.5v-.2c0-19.6,15-36,36.1-36s35.9,16.2,35.9,35.8v.2c0,19.6-15,36-36.1,36S135.9,150.1,135.9,130.5Zm59.4,0v-.2c0-13.5-9.7-24.8-23.4-24.8s-23.2,11.1-23.2,24.6v.2c0,13.5,9.7,24.7,23.4,24.7S195.3,144.1,195.3,130.5Z" transform="translate(-8 -8.9)"/><path class="a" d="M274.9,144.7c-.6-8.7-6-13.1-13.6-15.8,5.1-2.8,9.8-7.4,9.8-16.1v-.2a16.9,16.9,0,0,0-4.6-12c-3.9-4.1-10.1-6.4-17.9-6.4H217.8v72.1h31.8a36.9,36.9,0,0,0,12-1.8l2.3-3.5Zm-45.2-39.2H247c7.7,0,12.1,3.5,12.1,9.2v.2c0,6.6-5.2,9.8-12.9,9.8H229.7V105.5Zm33.2,39.7c0,6.5-5,9.9-13.2,9.9h-20V135.3h19.1c9.5,0,14.1,3.6,14.1,9.7Z" transform="translate(-8 -8.9)"/><path class="a" d="M320.2,94.2,270,166.4h13.5l11.7-17.3h33.4l2.7,17.3H344L332,94.3H320.2Zm-17.4,43.7L322.6,109l4.5,28.9Z" transform="translate(-8 -8.9)"/><path class="a" d="M357,94.2h12.4v60.6h37.1v11.5H357Z" transform="translate(-8 -8.9)"/><path class="a" d="M87.1,94.2H99.5v60.6h37.1v11.5H87.1Z" transform="translate(-8 -8.9)"/><path class="a" d="M332.5,9.2a111.6,111.6,0,0,1,52.7,18.1c27.5,18,45.1,43.2,51.6,75.4A117.1,117.1,0,0,1,349.2,240a119.2,119.2,0,0,1-30.3,3.2h-1.1c56.5-5.8,102.5-53.1,105-112A117.7,117.7,0,0,0,373.6,30a115.4,115.4,0,0,0-54-21C319.9,8.8,329.6,9,332.5,9.2Z" transform="translate(-8 -8.9)"/><path class="b" d="M482.9,113.7H471.6v13.7H483c5.6,0,8.9-2.5,8.9-6.7v-.2C491.9,114.9,487,113.7,482.9,113.7Z" transform="translate(-8 -8.9)"/><path class="b" d="M556.3,94.2c20.8,0,37.6,14.3,39.1,33.2v.5l-26.6,36.6h-.5a44.9,44.9,0,0,1-12.2,1.7c-22,0-39.2-15.7-39.2-35.8v-.2c0-20.2,17.3-36.1,39.4-36.1H483.8c10.6,0,18.6,2.6,23.9,7.8s6.7,10,6.7,17.1v.2c0,9.9-4.8,17.6-13.7,22l17.3,25h62.9l50.9-72.1Z" transform="translate(-8 -8.9)"/><polygon class="b" points="463.5 136.5 463.5 157.5 484 157.5 469.9 136.5 463.5 136.5"/><path class="b" d="M556.3,146.8c9.3,0,16.2-7,16.2-16.4v-.2a16.1,16.1,0,0,0-16.4-16.5,16,16,0,0,0-16.3,16.4v.2C539.7,139.7,546.8,146.8,556.3,146.8Z" transform="translate(-8 -8.9)"/><polygon class="b" points="617.9 127.3 629.2 127.3 627.3 113.3 617.9 127.3"/><path class="b" d="M700.2,114.1h-6.4v32.3h6.4c11.2,0,17.9-6,17.9-16v-.2C718.1,120.1,711.4,114.1,700.2,114.1Z" transform="translate(-8 -8.9)"/><polygon class="b" points="606.1 145.1 597.7 157.5 632.8 157.5 631.1 145.1 606.1 145.1"/><path class="a" d="M514.3,119.4v-.2c0-7.1-2.2-12.7-6.7-17.1s-13.3-7.8-23.9-7.8H449v72.1h22.4V145.5h6.3l14.1,20.9h26l-17.3-25C509.5,137.1,514.3,129.3,514.3,119.4Zm-22.4,1.1v.2c0,4.2-3.3,6.7-8.9,6.7H471.6V113.7h11.3C487,113.7,491.9,114.9,491.9,120.5Z" transform="translate(-8 -8.9)"/><path class="a" d="M516.9,130.3v.2c0,20.1,17.2,35.8,39.2,35.8a44.9,44.9,0,0,0,12.2-1.7h.5l26.6-36.6v-.5c-1.4-18.9-18.2-33.2-39.1-33.2S516.9,110.1,516.9,130.3Zm22.8,0v-.2a16.4,16.4,0,1,1,32.7.1v.2a16.4,16.4,0,1,1-32.7-.1Z" transform="translate(-8 -8.9)"/><path class="a" d="M631.8,94.2l-50.9,72.1h24.8l8.4-12.4H639l1.7,12.4h23.5L652.8,94.2Zm5.4,42H626l9.4-14Z" transform="translate(-8 -8.9)"/><path class="a" d="M699.6,166.3c24.8,0,41.4-14.6,41.4-36.2v-.2c0-21.6-16.1-35.6-41-35.6H671.3v72.1h28.3Zm18.5-35.9c0,10-6.7,16-17.9,16h-6.4V114.1h6.4c11.2,0,17.9,6,17.9,16.1Z" transform="translate(-8 -8.9)"/><line class="b" x1="475.8" y1="85.3" x2="548.3" y2="85.3"/><line class="b" x1="548.3" y1="85.3" x2="623.8" y2="85.3"/><line class="b" x1="663.3" y1="85.3" x2="644.9" y2="85.3"/><line class="b" x1="441.1" y1="85.3" x2="475.8" y2="85.3"/><line class="b" x1="623.8" y1="85.3" x2="644.9" y2="85.3"/><line class="b" x1="663.3" y1="85.3" x2="692" y2="85.3"/><line class="b" x1="463.5" y1="157.5" x2="484" y2="157.5"/><line class="b" x1="597.7" y1="157.5" x2="632.8" y2="157.5"/><line class="b" x1="510" y1="157.5" x2="572.9" y2="157.5"/><line class="b" x1="463.5" y1="157.5" x2="441.1" y2="157.5"/><line class="b" x1="510" y1="157.5" x2="484" y2="157.5"/><line class="b" x1="632.8" y1="157.5" x2="656.3" y2="157.5"/><line class="b" x1="572.9" y1="157.5" x2="597.7" y2="157.5"/></svg>