<svg xmlns="http://www.w3.org/2000/svg" viewBox="0 0 210.04 50.65"><defs><style>.cls-1{fill:#fff;}</style></defs><title>Hurley</title><g id="Layer_2" data-name="Layer 2"><g id="Layer_1-2" data-name="Layer 1"><path class="cls-1" d="M22.13,42.18V24.91h-14V42.18H0V2.61H8.05V17.45H22.12V2.65h8V42.18Z"/><path class="cls-1" d="M209.31,0c.2.16.64.35.68.6a1.37,1.37,0,0,1-.32,1.07c-.76.75-1.65,1.36-2.4,2.11a29,29,0,0,0-8.57,18.4,30.68,30.68,0,0,0,4.81,20.23A26.42,26.42,0,0,0,209.62,49a1.2,1.2,0,0,1,.39,1,1.23,1.23,0,0,1-1,.55,119.19,119.19,0,0,0-13.55-2.09c-3.43-.38-5.6-2.58-6.71-5.7a59.83,59.83,0,0,1-3.83-16.65,30,30,0,0,1,1.15-9c.72-2.84,1.5-5.67,2.39-8.46.84-2.61,2.26-4.88,5-5.87A25.36,25.36,0,0,1,198,1.94c3.61-.61,7.23-1.19,10.84-1.79A5,5,0,0,0,209.31,0Z"/><path class="cls-1" d="M167.56,26.41c-.16-9.85-3.11-17.45-9.68-23.49-.47-.44-1.07-.76-1.49-1.24A1.37,1.37,0,0,1,156.1.55a1.13,1.13,0,0,1,1-.42,91.88,91.88,0,0,0,12.77,2,8.11,8.11,0,0,1,7.4,5.69,59.2,59.2,0,0,1,3.9,16.86,26.39,26.39,0,0,1-.93,8c-.78,3.2-1.64,6.38-2.64,9.52s-2.92,5.52-6.33,6.26c-1.36.29-2.79.29-4.17.51-3.25.53-6.5,1.1-9.75,1.67-.55.09-1.06.16-1.33-.46s.15-.9.55-1.22A28,28,0,0,0,166.81,32.1C167.27,29.9,167.4,27.63,167.56,26.41Z"/><path class="cls-1" d="M121.89,29.67H97A7.51,7.51,0,0,0,102.45,36a11.66,11.66,0,0,0,8.3-.52A13.3,13.3,0,0,0,112.83,34c.2-.14.42-.37.63-.37,2.6,0,5.2,0,7.89,0a10.57,10.57,0,0,1-2,3.43,15.34,15.34,0,0,1-11.6,5.84A19.26,19.26,0,0,1,97.44,41a14.94,14.94,0,0,1-8-14.56,15.2,15.2,0,0,1,12.8-14c5.9-.86,11.29.19,15.65,4.63A15.83,15.83,0,0,1,121.89,29.67Zm-7.72-5.81c-.85-3.23-4.49-5.46-8.67-5.38-3.82.07-7.44,2.47-8.07,5.38Z"/><path class="cls-1" d="M51.91,12.91h7.73c0,.21.06.38.06.55,0,5.39,0,10.77-.15,16.16a15.38,15.38,0,0,1-1.15,6.17,11.34,11.34,0,0,1-8.12,6.68,18.77,18.77,0,0,1-9-.08,11.27,11.27,0,0,1-8.59-9.8c-.29-2.6-.41-5.23-.46-7.86-.08-3.66,0-7.33,0-11v-.82H40v.9c0,5,0,9.94,0,14.91a16.17,16.17,0,0,0,.28,2.94,5.38,5.38,0,0,0,6.09,4.55c3.27-.29,5.08-2,5.31-5.32.15-2.17.14-4.36.16-6.55,0-3.51,0-7,0-10.54Z"/><path class="cls-1" d="M119.38,12.88c2.61,0,5.09,0,7.56,0a1.11,1.11,0,0,1,.71.61q3.22,7.3,6.41,14.63c.43,1,.87,2,1.34,3.07a5.33,5.33,0,0,0,.31-.47c2.77-5.72,5.55-11.45,8.29-17.19a1,1,0,0,1,1.12-.69c2.31,0,4.63,0,7.06,0a5.23,5.23,0,0,1-.25.65q-8,16.85-16,33.69a1.3,1.3,0,0,1-1.39.9c-2.26-.06-4.52,0-6.88,0,.09-.26.15-.47.24-.67,1-2.21,2-4.41,3-6.6a1.68,1.68,0,0,0,0-1.53q-5.59-12.72-11.13-25.48C119.64,13.54,119.54,13.26,119.38,12.88Z"/><path class="cls-1" d="M80,2.51h7.62V42.17H80Z"/><path class="cls-1" d="M69.43,42.2H61.76V12.92h6.62v3.35l.14.05.51-.77A7,7,0,0,1,77.6,12.7a1,1,0,0,1,.57.66c0,2.31,0,4.63,0,7.08-.42-.33-.71-.61-1-.83-2.52-1.64-6-1.61-7,2.43a22.61,22.61,0,0,0-.67,5.39c-.09,4.65,0,9.31,0,14Z"/></g></g></svg>