<svg xmlns="http://www.w3.org/2000/svg" viewBox="0 0 205.7 153.8"><defs><style>.a{fill:#fff;}</style></defs><title>Kcon</title><path class="a" d="M39.2,93l4.4-3.3,12.6-9.5,8.5-6.3.7-.5Q57.7,44.6,50.2,15.8h.1L66.7,26.3c2,13.8,4.1,27.5,6.2,41.4l.4-.3,2-1.5.5-.5.8-.4,3.7-2.8,2-1.6.6-.4L85,58.6l13.4-10,4.3-3.2,1.6-1.2.8-.7.5-.3L119.3,33l16.9-12.7,11.4-8.5,5.1-3.9,9.1-6.8,1.1-.8.5-.3h0a3,3,0,0,1-.8.8l-5.3,4.9-5.9,5.3-8.1,7.3-.5.6-.8.6L138.2,23l-4.7,4.3-2,1.8-5.1,4.6-2.6,2.4L119.6,40a34.5,34.5,0,0,0-2.8,2.6l-4.4,3.8-2.5,2.3a.9.9,0,0,0-.3.6l-.7.3-6.6,6.1-6.4,5.7L88.7,68l-7.9,7.1-5.5,5-.5.4c.2,1,.3,2,.5,3.1h.6l8.4.8,5.6.5,8.5.8,7.9.7,11.2,1.1,5.6.5,10,1,8,.7,9.4.9,4.2.4,5.9.5,4.7.5c.3,0,.5,0,.6.2H148.3l-26,.2-23.5.2H76.6l.3,2.2c.3,2.4.7,4.9,1.1,7.3l1.2,7.9c.4,2.6.7,5,1.1,7.5s.7,4.7,1,7,.7,4.7,1.1,7,.4,3.2.7,4.7l.9,6.1.3,1.8H84l-3-11.8-5.6-21.3L71.8,97.5a9.7,9.7,0,0,0-.8-2.4,5.7,5.7,0,0,0-.3-1.8.4.4,0,0,0-.1-.3H54.5l-1.7.2H39.4C39.3,93.2,39.3,93.1,39.2,93Z"/><path class="a" d="M157.4,84.8l-7.1-.2,3-14.2h-.1L142.8,84.5l-6.8-.2c.3-.8,12.4-17.4,18.3-25.1h6.9c-1,4.9-2,9.7-3.1,14.5h.2l10.5-14.3,6.8.2h0Z"/><path class="a" d="M105.2,43.4l-.9.8a9.1,9.1,0,0,1-1.6,1.1l-.7-.4-6.9-4.3-5.8-3.7-5.2-3.1-4.5-2.9c-.3-.2-.5-.4-.8-.2s.3,2.7.4,4,.1,1.4.2,2l.3,2.2c.1.7.1,1.2.2,1.7s.3,2.2.4,3.2.3,2.4.4,3.6l.6,4.6c.2,1.5.4,3.1.5,4.7a7.7,7.7,0,0,1,.2,1.5l.3,2.4-2,1.6L76.6,65l-.8.4-.3-1.3c-.1-.7-.1-1.4-.2-2.1L75,59.9c-.1-.7-.1-1.3-.2-2s-.5-3.6-.7-5.4-.1-2.3-.3-3.5-.3-2.3-.4-3.4a7.8,7.8,0,0,1-.2-1.6c-.1-1.1-.2-2.3-.4-3.5s-.4-3.2-.6-4.8l-.3-3.8-.3-2c-.1-.7-.1-1.3-.2-1.9s-.3-2.4-.5-3.6-.1-1.4-.2-2.2.6,0,.8.2l4.3,2.7,5,3.1,5,3L90,33.9l3.1,1.9,3.4,2.1,6.6,4.1Z"/><path class="a" d="M124.6,84a16.9,16.9,0,0,1-5.5-.6,4.1,4.1,0,0,1-1.5-.7,1.9,1.9,0,0,1-.7-2.2,11.4,11.4,0,0,1,1-1.9l10.6-14.4a11.4,11.4,0,0,1,7.4-4.7,24.4,24.4,0,0,1,8.5-.4,13.1,13.1,0,0,1,2.7.6l.7.3a1.8,1.8,0,0,1,1,2.4,6.5,6.5,0,0,1-1.1,2.2L137.6,78.4a12.8,12.8,0,0,1-8.6,5.2A22.5,22.5,0,0,1,124.6,84Zm0-4.6a1.1,1.1,0,0,0,.9,1,5.3,5.3,0,0,0,2.5-.2,4.1,4.1,0,0,0,2.4-1.9c2.5-3.4,5-6.7,7.4-10.1l3-4c.6-.9.4-1.4-.7-1.7a4.8,4.8,0,0,0-4.5,1.7l-9.9,13.5-1.2,1.7Z"/><path class="a" d="M110.9,74.8c2.3,0,4.6,0,6.9.2,0,.1,0,.2-.1.2l-2.5,3.5a12.3,12.3,0,0,1-6.4,4.1,25.5,25.5,0,0,1-7.3.7,18.3,18.3,0,0,1-4-.5h-.6l-.6-.4a2,2,0,0,1-1.1-2.6.1.1,0,0,1,.1-.1,5.6,5.6,0,0,1,.9-1.7l3.3-4.6,6.8-9.3a13.3,13.3,0,0,1,8-5.3,25.4,25.4,0,0,1,9.9-.1,4.9,4.9,0,0,1,1.7.6,1.9,1.9,0,0,1,1.2,2.5.3.3,0,0,1-.1.2,3.4,3.4,0,0,1-.6,1.2l-3,4.2-6.9-.2a.6.6,0,0,1,.1-.4l2.4-3.1a5.6,5.6,0,0,1,.5-.8c-.1-.5-.4-.9-.9-.9a4.9,4.9,0,0,0-4.7,1.5l-5.3,7.3L103.3,78a1.4,1.4,0,0,0-.4,1.4,1.7,1.7,0,0,0,1.5.5,4.4,4.4,0,0,0,4.1-1.8C109.2,77,110.1,75.9,110.9,74.8Z"/><path class="a" d="M109.5,49.3l.3-.6,2.6-2.3,4.3-3.8,2.8-2.6,4.3-3.9,2.6-2.4,5.1-4.6,2-1.8,4.7-4.3,3.8-3.4.8-.6c0,.3.1.6.1.9-.1,2-.1,4.1-.2,6.3l-1.3,1.3-3.2,2.9-4.5,4-2.1,1.9-3.1,3-4.8,4.3-4.5,4.1-2.7,2.5-2.4,2.1-1.4-.8-2.8-1.7Z"/><path class="a" d="M87,153.8l-.3-1.9c-.3-2-.5-3.9-.8-5.8s-.3-2.8-.5-4.2-.5-3.5-.8-5.2-.2-2.1-.4-3.1-.3-2.6-.5-3.9a10,10,0,0,1-.2-1.6c-.2-1.1-.4-2.1-.5-3.2s-.3-2-.4-3l-.3-2.9c-.2-1.4-.4-2.8-.7-4.3s-.4-2.6-.6-3.9l-.3-3c-.2-1-.3-2-.5-3.1l-.3-2.7-.3-2.8a46.7,46.7,0,0,1,5.2.8,4.3,4.3,0,0,1,.1.5v1.7c0,1.6.1,3.1.2,4.6s.1,2.5.1,3.7.1,2.5.2,3.7.1,2.2.1,3.2.2,2.8.2,4.2.1,2.5.2,3.8.3,5,.3,7.5.1,2,.2,3.1.1,2.7.1,4,.1,2.6.2,3.8.1,2.5.2,3.8.1,2.3.1,3.4.1,1.9.2,2.8Z"/><path class="a" d="M39.2,93c.1,0,.1.2.2.2H52.7l-1.3,1.2-3.5,2.5a3.6,3.6,0,0,1-1.7.7l-5.2.8-6,1-4.1.7H30a4.7,4.7,0,0,1,1.5-1.3l3.9-2.9Z"/><path class="a" d="M156,97.2h1.9l-6.6,10.9H149l1.9-7-4.4,7h-2.1c2.2-3.7,4.5-7.3,6.7-10.8H154c-.5,1.7-1.5,5.4-1.6,5.5h0Z"/><path class="a" d="M100.3,116.4H98.1l-2.7,4.2H93.2c.1-.3,6.3-10.2,6.7-10.9h2.3l-2.6,4.2h2.2l2.6-4.2h2.4L100,120.6H97.7C98.1,119.9,99.9,116.9,100.3,116.4Z"/><path class="a" d="M139.3,108.1H137c.5-.8,2.1-3.4,2.5-4.2h-2.2l-2.6,4.2h-2.3l6.8-10.9h2.3l-2.6,4.2h2.2l2.6-4.2H146Z"/><path class="a" d="M135.5,109.7h2.4c-.2.3-3.3,5.4-4.9,7.8l-.3.6a.4.4,0,0,0,.2.5h0a.9.9,0,0,0,.9-.1,3.2,3.2,0,0,0,1.2-1.1l4.9-7.7H142l-4.6,7.3a9.1,9.1,0,0,1-2,2.4,5.4,5.4,0,0,1-4.2,1.2,1.3,1.3,0,0,1-1.3-1.3c0-.1.1-.3.1-.4a3,3,0,0,1,.4-1Z"/><path class="a" d="M109.8,97.2h3.3c-.7,1.9-1.5,3.7-2.3,5.5s-1.5,3.5-2.2,5.4h-2.2a1.2,1.2,0,0,1,.2-.9l.3-1h-2.2l-1.7,1.9h-2.1Zm-.4,3.4H109l-2.7,3.4h1.5a11.9,11.9,0,0,0,.8-1.6A15.4,15.4,0,0,0,109.4,100.6Z"/><path class="a" d="M109.8,109.8h3.1c-.1.6-3.3,8.4-4.4,10.8h-2.3l.6-1.9h-2.2l-1.7,1.9H101Zm-.5,3.3v-.2l-.9,1.2-1.8,2.1-.3.4h1.6Z"/><path class="a" d="M159,108h-1.8c-.1,0-.1-.3-.2-.3a4.7,4.7,0,0,1-1.7.3,1.4,1.4,0,0,1-1.5-1.3,1.1,1.1,0,0,1,.1-.5,2.4,2.4,0,0,1,.5-1.4,39.9,39.9,0,0,1,2.7-4.4,7.1,7.1,0,0,1,4.3-3.1h1.5a1.4,1.4,0,0,1,1.4,1.3.4.4,0,0,1-.1.3,5.2,5.2,0,0,1-1,2.6h-2a5.9,5.9,0,0,0,.4-.8c.1-.2.3-.6,0-.9a1,1,0,0,0-.9-.2,2.8,2.8,0,0,0-1.6,1.2c-.9,1.4-1.8,2.8-2.6,4.2a1.4,1.4,0,0,0-.2.6.4.4,0,0,0,.2.4.6.6,0,0,0,.7.1,2.1,2.1,0,0,0,1.6-1,12.5,12.5,0,0,0,.8-1.2l-.6-1.4h3.6C161.3,104.3,160.1,106.2,159,108Z"/><path class="a" d="M165.9,104.4a.7.7,0,0,0-.4-.8l-.6-.4c-1-.5-1.1-1-.7-2s2.8-4,5.4-4,2,.8,1.5,2.2-.5,1-.7,1.4h-1.9a3.1,3.1,0,0,0,.4-1.5h-.1a1.2,1.2,0,0,0-1,.2,2.4,2.4,0,0,0-1.2,1.4.7.7,0,0,0,.3,1h0l.9.4a1.3,1.3,0,0,1,.5,2,6.6,6.6,0,0,1-2.9,3.3,6.1,6.1,0,0,1-3,.5h-.6a1.1,1.1,0,0,1-.8-1.3h0a6.2,6.2,0,0,1,1-2.2h2.1c-.2.4-.6.8-.6,1.2s.1.4.3.4a1.8,1.8,0,0,0,2.1-1.4Z"/><path class="a" d="M125.5,120.6h-2.3l2.3-3.8c.1-.3,1.7-6.9,1.7-7h2.4l-1,4.1,1.5-1.5,1.4-1.4,1.3-1.3H135l-.7.8-6.1,6.1a14.7,14.7,0,0,0-1,1.3Z"/><path class="a" d="M132.6,99.2h-2.2l1.2-2h6.8l-1.2,2H135l-5.6,8.8h-2.2c.5-1.1,1.2-2,1.7-2.9l1.9-3C131.4,101.1,132,100.3,132.6,99.2Z"/><path class="a" d="M118.3,109.7l-5.5,8.9h3.5l-1.2,2h-5.7c1.3-2,5-8.1,6.7-10.9Z"/><path class="a" d="M119.4,118.6h3.5l-1.2,2h-5.8l6.7-10.8h2.3Z"/><path class="a" d="M122.7,97.2H125l-5.5,8.9h3.4a12.8,12.8,0,0,1-1.1,2h-5.7C116.2,107.5,120.4,100.7,122.7,97.2Z"/><path class="a" d="M109.4,108.1l6.7-10.8h2.3l-5.5,8.8h3.5l-1.2,2Z"/><path class="a" d="M147.5,97.3h2.2L143,108.1h-2.1A105.6,105.6,0,0,1,147.5,97.3Z"/></svg>