<svg xmlns="http://www.w3.org/2000/svg" viewBox="0 0 193.96 67.93"><defs><style>.cls-1{fill:#fff;}</style></defs><title>Mnet</title><g id="Layer_2" data-name="Layer 2"><g id="Layer_1-2" data-name="Layer 1"><path class="cls-1" d="M49.46,67.87c-9.2,0-18.41.08-27.61-.05a36.89,36.89,0,0,1-8.17-1.06C6,64.87,1.83,59.6.34,52A11.84,11.84,0,0,1,0,49.58C.1,38.35-.26,27.08.49,15.89,1.05,7.58,7.42,1.89,15.76.61A49.7,49.7,0,0,1,23.08,0q27-.08,54,0a34.54,34.54,0,0,1,8.17,1c8.1,2,13,7.72,13.78,16,.32,3.14.37,6.33.38,9.49,0,7.26,0,14.52-.19,21.78C98.87,60.1,92.08,67.55,78.3,67.83,68.69,68,59.08,67.87,49.46,67.87ZM88.29,51.21c.08-1.36.2-2.46.2-3.55q0-12.9,0-25.79c0-.82,0-1.64-.08-2.46a10.32,10.32,0,0,0-4.53-8A14.41,14.41,0,0,0,61.65,18.5C58.55,28,55.5,37.58,52.42,47.11a11,11,0,0,1-.85,2.29,2.19,2.19,0,0,1-4,.05,14.42,14.42,0,0,1-1.08-2.86q-4.65-14.45-9.28-28.91c-1.56-4.89-5-7.57-9.9-8.58a19,19,0,0,0-4.59-.19c-7.43.29-12.13,5.18-12.14,12.58q0,13.05,0,26.09v3.53H22.47V47.54q0-11.37,0-22.72a12.43,12.43,0,0,1,.18-2.74c.13-.51.7-1.2,1.13-1.25a2.23,2.23,0,0,1,1.83.64,13.85,13.85,0,0,1,1.47,3.34q4.34,13.27,8.59,26.57a14.24,14.24,0,0,0,4.47,6.82c7,5.86,20,4,23.32-6.73q3.1-9.8,6.29-19.57,1.45-4.53,3-9c.5-1.45,1.24-2.64,3.47-1.78.11,1.15.33,2.43.34,3.71,0,7.57,0,15.15,0,22.72,0,1.19.16,2.37.26,3.69Z"/><path class="cls-1" d="M151.59,37.15c-.53,4.78.54,6.11,4.6,6.2,3.14.07,6.29,0,9.65,0v8.28h-5.26c-2.56,0-5.12,0-7.67,0-6.39-.25-10.5-4.28-10.66-10.7s-.16-12.68,0-19c.18-6.13,4.07-10.14,10.15-10.64a28.75,28.75,0,0,1,6.42.23,9.33,9.33,0,0,1,8.31,7.88,49.57,49.57,0,0,1,.56,7.92c.07,2,.05,4.09,0,6.13-.08,2.7-.92,3.6-3.77,3.71s-5.93,0-8.9,0Zm6.83-8.81a48.61,48.61,0,0,0,0-6.08c-.25-1.79-1.75-2.69-3.57-2.62s-3.07.92-3.28,2.61a51.14,51.14,0,0,0-.06,6.09Z"/><path class="cls-1" d="M126.93,51.3V47.72c0-8,0-16,0-23.94,0-3.16-1.52-4.42-4.66-4.16-2.6.21-3.63,1.31-3.65,4.29-.06,8,0,16,0,23.94v3.51h-8.81a24.61,24.61,0,0,1-.26-2.6c0-8.59-.09-17.18.06-25.77a19.36,19.36,0,0,1,1.21-6.23,8.05,8.05,0,0,1,4.59-4.41,20.11,20.11,0,0,1,14.68,0c3.42,1.31,5.12,4.26,5.75,7.78a21.52,21.52,0,0,1,.27,3.67q0,12.43,0,24.86c0,.8-.1,1.61-.18,2.68Z"/><path class="cls-1" d="M193.79,43.36v8c-4.12,0-8.11.34-12-.1s-6.34-3.14-7.49-6.84a16.05,16.05,0,0,1-.73-4.51c-.06-9,0-18,0-27,0-.48.11-1,.18-1.61h8.74c.14,1.73.26,3.32.42,5.33H194v7.78H182.65v4.92c0,3.07,0,6.14,0,9.2.06,3.63,1.15,4.71,4.81,4.81C189.5,43.41,191.53,43.36,193.79,43.36Z"/></g></g></svg>