<svg xmlns="http://www.w3.org/2000/svg" viewBox="0 0 174.82 144.74"><defs><style>.cls-1{fill:#fff;}</style></defs><title>SanGabriel</title><g id="Layer_2" data-name="Layer 2"><g id="Layer_1-2" data-name="Layer 1"><g id="ZAtQHj.tif"><path class="cls-1" d="M47.76,45.77v-.84q0-6.51,0-13c0-.54,0-1-.61-1.27-.4-.22-.37-.5,0-.81q1.95-1.56,3.91-3.06a1.36,1.36,0,0,1,.79-.24c.59,0,1.19,0,1.82.08a1.47,1.47,0,0,0,.09-1.3c-.15-.38-.58-.65-.94-1,.24-.25.42-.46.63-.64,1.12-.92,2.24-1.86,3.38-2.76a11.78,11.78,0,0,1,1.29-.79V18.74a.6.6,0,0,0-.12-.11c-.25-.11-.61,0-.68-.41s.24-.48.46-.65l3.62-2.72a1.45,1.45,0,0,1,1-.3l4.18.25c.35,0,.69.09.94-.25a1,1,0,0,0,0-1.14c-.13-.25-.3-.48-.49-.79a6.47,6.47,0,0,1,.58-.59c.94-.79,1.89-1.57,2.84-2.34a1.38,1.38,0,0,1,.57-.35,3,3,0,0,0,1.33-.74c.7-.54,1.42-1,2.09-1.63a5.42,5.42,0,0,1,3.6-1.51,7.55,7.55,0,0,0,.06-2.87c-.29,0-.6,0-.9-.11s-.51-.19-.48-.5.23-.44.53-.45h.89c0-.29,0-.54.06-.79,0-.53.19-.76.51-.74s.44.26.46.79c0,.26,0,.51,0,.83l.85.16c.29.07.56.19.51.56s-.3.39-.58.38h-.72a25.93,25.93,0,0,0,0,2.79,6.55,6.55,0,0,1,5.43,5l2,.24c.69.08.86.34.6,1a2.58,2.58,0,0,1-.48.8,1.18,1.18,0,0,0-.31,1,7.24,7.24,0,0,0,1.19,3.26,1.4,1.4,0,0,0,1.13.63c2.62.21,5.23.45,7.85.69.69.06.76.14.79.83,0,.25,0,.5.05.8l1.38.15c1,.09,2,.2,3,.26a3.42,3.42,0,0,0,1-.2,1.07,1.07,0,0,0,.38-.2,4.24,4.24,0,0,1,3.26-.57c1.36.16,2.72.26,4.14.4.19-.41.37-.79.53-1.18.46-1.07.92-2.15,1.36-3.23a.7.7,0,0,1,.77-.51c1.58,0,1.62.05,2.26,1.52s1.19,2.72,1.75,4.09a.87.87,0,0,0,.83.59l12.84,1.38c.63.07,1.25.13,1.87.24s.56.15.59.66c0,.23,0,.46,0,.69q0,27.66,0,55.32c0,2.66,0,5.31,0,8,0,.2,0,.4,0,.6,0,.51-.09.57-.61.6-.2,0-.4,0-.6,0q-31.26,0-62.52,0l-28.35,0c-1.18,0-1.18,0-1.18-1.18l0-14.3q0-17.91-.08-35.8c0-1.33,0-1.35,1.35-1.2a16.36,16.36,0,0,0,1.71.11,1.11,1.11,0,0,1,1.18.87c1,2.79,2,5.57,3.06,8.35a6.54,6.54,0,0,0,.28.6ZM67.89,82.72a4.4,4.4,0,0,0,1.43-1.26c1.47-1.93,2.93-3.85,4.42-5.76a1.55,1.55,0,0,0,.32-1.11,2.85,2.85,0,0,1,.79-2.11c.66-.7,1.41-1.31,2.1-1.94a1.47,1.47,0,0,1,.4.16,1.08,1.08,0,0,0,1.33.14,1.7,1.7,0,0,1,1.33,0,11.65,11.65,0,0,0,1.4.39,1.18,1.18,0,0,1,.93.64,2.32,2.32,0,0,0,1.42,1.2c.58-1.2,1.16-2.35,1.68-3.51a7.09,7.09,0,0,0,.67-3c0-1,.06-2.06.16-3.08A6.67,6.67,0,0,1,87,60.87a3.79,3.79,0,0,0,.46-1.52,1.85,1.85,0,0,1,2.06-1.82,2.59,2.59,0,0,1,2,1.07,1.25,1.25,0,0,1-.15,1.75c-.45-.19-.45-.19-1-.91s-1.07-.68-1.49.12a11.69,11.69,0,0,0-1.29,4.31,25.24,25.24,0,0,0-.05,3.38A4,4,0,0,0,88.1,67c.44-.29.78-.14,1.16.15a15.08,15.08,0,0,0,1.54,1.07,1.37,1.37,0,0,1,.58,1.09A1,1,0,0,1,91,70.39a8.63,8.63,0,0,1-.81-.62c-.28-.27-.51-.61-.79-.9a1.31,1.31,0,0,0-2-.06,4.1,4.1,0,0,0-.67.88,14.56,14.56,0,0,0-1,2.82c.5.56,1,1,1.41,1.58a9.89,9.89,0,0,1,1.79,6.3c0,.47-.16.61-.62.62a4,4,0,0,1-.59-.09,6.93,6.93,0,0,0-5.35,1.24,5.43,5.43,0,0,0-2.16,3.1c-.12.53.13.79.65.65s1-.33,1.43-.49a8.85,8.85,0,0,1,.24-.86,2.53,2.53,0,0,1,.38-.75,2.11,2.11,0,0,1,.8-.6,16.54,16.54,0,0,1,6.54-1,5,5,0,0,1,2.36.69,2.23,2.23,0,0,1,1.08,1.24c-.53.61-.73.67-1.32.34a5.48,5.48,0,0,1-.91-.63,2.53,2.53,0,0,0-2.24-.53,6.42,6.42,0,0,0-1.22.39,21.78,21.78,0,0,1-3.73,1.48s-.08.07-.12.11c-.23.94-.23.94.32,1.43a2.39,2.39,0,0,1,.27-.43,5.61,5.61,0,0,1,4.1-1.63,5.92,5.92,0,0,1,3.19.84,1.78,1.78,0,0,0,1.79.15,12.46,12.46,0,0,0,1.64-.91.62.62,0,0,0,.14-1,2.55,2.55,0,0,0-.38-.35l-3.64-3.11a6.44,6.44,0,0,1-.57-.65l.78-.75c0-1.3,0-2.58,0-3.87a4.32,4.32,0,0,0-.21-1.34,1.23,1.23,0,0,0-2-.68,4.91,4.91,0,0,1-.59.33,1.66,1.66,0,0,1-.58.15c-.41,0-.6-.22-.43-.59s.53-.94.8-1.4l3-.12c.55-2.62.34-5.08-.57-6.22-.09.46.07,1.07-.72,1-.8-1.37-.58-3-1.05-4.44l-.93-.19a6.52,6.52,0,0,1,.89-2.47,5.49,5.49,0,0,1,.68.63,3.57,3.57,0,0,1,.72,1.72c.11.77.24,1.54.38,2.47.42-1.09.35-2.29,1.63-2.73a84.47,84.47,0,0,1,1.17,9.74c1.24.45,1.23.45,1.13,1.68a1,1,0,0,0,.15.71A4,4,0,0,1,96,75.94c0,.77,0,1.55,0,2.31s.15,1.54-.55,2.11a.6.6,0,0,0-.14.3c-.17.59,0,.91.65,1.13a1.34,1.34,0,0,0,.36-1.08,4.71,4.71,0,0,1,.15-1.18c.23-.74.78-.91,1.44-.51l.45.23c.65-.53.84-1.4,1.6-1.89.46.35.92.67,1.35,1s.83.78,1.22,1.16l.71-.22c.64-.16.91,0,1,.69,0,.4,0,.8,0,1.2a1.71,1.71,0,0,0,.2,1.15c.11-.06.11-.21.19-.28.49-.54.87-.6,1.36-.08s1.3.57,1.93,1c.18-3.23.09-40.79-.09-41.51-1.87-.16-3.74-.36-5.61-.48s-3.72-.36-5.67-.39v1c0,2.43,0,4.85,0,7.28,0,.78-.22.94-1,.87-1.13-.1-2.27-.18-3.4-.25l-4.79-.22c-.48,0-1-.09-1.44-.13a.55.55,0,0,1-.57-.61V48q0-3.64,0-7.28c0-.31,0-.61,0-.89a107.45,107.45,0,0,0-10.85-.61v11c0,.2,0,.4,0,.6,0,.53-.22.71-.74.69l-7.09-.29L61.8,51h-.26c-.5-.08-.63-.22-.66-.72,0-.2,0-.4,0-.6V39c0-.3,0-.6,0-.89a66.68,66.68,0,0,0-8.77-.66V77.09a8.17,8.17,0,0,0,.77-.49c.25-.2.46-.44.69-.65,1.13-1,2-1.16,3.2-.23a21.93,21.93,0,0,1,2.46,2.36,18.67,18.67,0,0,1,1.24,1.57l.7-.36c.32-.18.64-.37,1-.53a2.75,2.75,0,0,1,3.77,1.12,15.73,15.73,0,0,1,1,1.82A1.85,1.85,0,0,0,67.89,82.72Zm51.17-54.78c0,.17,0,.28,0,.39q0,26,0,52s0,0,0,.07l.06,0a4.47,4.47,0,0,1,4,.8,2,2,0,0,0,1.47.48,2.56,2.56,0,0,1,2.15.59c.35.28.72.53,1.08.78a6.94,6.94,0,0,1,.86-1.23A30.92,30.92,0,0,0,131,79.77a6.41,6.41,0,0,1,1.41-.84V29.06Zm-13.23-1v.73c0,1.46,0,2.92,0,4.37,0,.63-.21.82-.83.8-.34,0-.68-.09-1-.1l-6.06-.22c-.88,0-1-.18-1-1.08V26.81c0-.24,0-.49-.06-.76l-5.61-.49v4.9c0,.25,0,.51,0,.77-.07.56-.3.73-.86.69L87,31.66l-2.64-.19c-1-.09-1.06-.21-1.06-1.16V25.77c0-.27,0-.55,0-.81-1.12-.11-8.75-.94-9.45-.73,0,.2,0,.42,0,.64,0,1.57,0,3.14,0,4.71,0,.86-.09,1-.92.92-1.14-.06-2.28-.14-3.41-.22l-2.13-.17-1-.12a.57.57,0,0,1-.55-.55,3.87,3.87,0,0,1,0-.68c0-1.52,0-3,0-4.54,0-.28,0-.56,0-.82a54.21,54.21,0,0,0-7.6-.49c0,1.42-.05,2.85,0,4.27.08,1.61-.87,2.24-2.19,2.05-1-.15-2.1-.2-3.15-.29-.21,0-.43,0-.72,0,0,2-.06,3.92,0,5.86l9.35.72c.17-.3.32-.57.49-.84a5.63,5.63,0,0,1,3.78-2.55,7.39,7.39,0,0,1,2.89,0,6.8,6.8,0,0,1,4.94,3.31c.19.31.36.64.52.93,2,.17,3.86.36,5.76.5s3.84.25,5.65.36a17,17,0,0,1,1.24-2,4.69,4.69,0,0,1,4.07-1.58,5.81,5.81,0,0,1,5.48,3.92,6.65,6.65,0,0,0,.27.61l11.4.89c.15-1.44.09-11.48-.07-12.19Zm6.21-.59a2,2,0,0,0-.09.35q0,28,0,56.07a3,3,0,0,0,0,.42.1.1,0,0,0,0,.07s0,0,0,0l2,.13a.84.84,0,0,0,.82-.33,2.87,2.87,0,0,1,1.6-.94,7.61,7.61,0,0,1,1.12-.14,1.62,1.62,0,0,0,.51-1.43V26.81C116,26.7,114,26.4,112,26.35ZM82.57,12.63c0,.3,0,.47,0,.64v4.11c0,1.31,0,1.35-1.35,1.26l-4.6-.36a3,3,0,0,1-.42-.06c-.71-.13-.82-.23-.83-.94,0-1.8,0-3.6,0-5.39a3.9,3.9,0,0,1,.88-2.46A3.52,3.52,0,0,1,81,9.18a3.88,3.88,0,0,1,1.45,2.39c.64.1,1.26.2,1.87.27a2.74,2.74,0,0,0,1.85-.08,18.21,18.21,0,0,0-1.92-.3,3.05,3.05,0,0,1-.74-.16c-.36-.15-.41-.42-.17-.75a1.52,1.52,0,0,1,.26-.25,5.88,5.88,0,0,0-1.56-2.5,5.77,5.77,0,0,0-3.32-1.39,4,4,0,0,0-4.38,2.64,2.42,2.42,0,0,0,0,.43,7.79,7.79,0,0,1,.79.12.47.47,0,0,1,.4.57.51.51,0,0,1-.57.41l-.17,0c-.87-.09-1.75-.19-2.63-.27-.21,0-.43,0-.68,0,.14.42.42.45.71.47l1.62.16a.58.58,0,0,1,.6.5c0,.25-.2.4-.62.42l-.6,0h-.87a2.93,2.93,0,0,0,0,.49A4.07,4.07,0,0,1,71,15.56a3.88,3.88,0,0,1-2.66,1.55c-1.08,0-2.17-.07-3.25-.1-.85,0-1.69,0-2.54,0a12.79,12.79,0,0,0,0,3.62l3.51.32c.15-.22.3-.46.47-.68A3,3,0,0,1,68.4,19,4.35,4.35,0,0,1,73.07,21c.13.24.29.47.43.7l10.21.94c.17-.28.28-.48.41-.66A3.23,3.23,0,0,1,87,20.58a4.05,4.05,0,0,1,3.46,2.05.91.91,0,0,0,.81.49c2.1.18,4.19.38,6.24.57l.12-.1.17-.19a3.91,3.91,0,0,1,4.36-1.57,4.44,4.44,0,0,1,2.92,2.06c.13.2.33.48.52.5.9.11,1.81.14,2.79.21l1.18-2.8-1.4-.08-7.06-.67c-.88-.08-1.76-.13-2.64-.22-2.1-.2-4.19-.4-6.29-.63a7,7,0,0,1-6-4,7.82,7.82,0,0,1-.7-2.54c-.07-.59-.15-.72-.61-.79C84.18,12.78,83.41,12.72,82.57,12.63ZM67,37.37a4.29,4.29,0,0,0-4.16-.12,2,2,0,0,0-1.09,1.87c.06,3.36,0,6.73,0,10.09,0,.28,0,.55,0,.93,2.41,0,4.75.26,7.16.19,0-1.17.06-2.26,0-3.45-1,0-2,0-2.9,0A7.6,7.6,0,0,1,63,46.26c-.79-.38-.87-.85-.22-1.43a3.35,3.35,0,0,0,1.1-2c.12-.65.22-1.3.29-2a3.71,3.71,0,0,1,2.28-3.25ZM84.83,76c-.58-1.26-1.19-1.68-3.14-2.17-.28.31-.59.63-.89,1-.48.55-1,1.13-1.44,1.68a2.4,2.4,0,0,1-.78.65c-.22.1-.53,0-.73,0l-1.27,1.69c-.41.54-.85,1.07-1.23,1.64a2.52,2.52,0,0,0-.25,2.23,11.73,11.73,0,0,0,3.78-.94c.33.36.47.85,1.07,1a4.39,4.39,0,0,1,2.16-2c.36-.18.73-.34,1.07-.54.51-.3,1-.63,1.65-1l-.47-.29a3.16,3.16,0,0,0-3-.27,6.66,6.66,0,0,0-3.06,2.23,2.25,2.25,0,0,1-.4.36.81.81,0,0,1-.34-1,3.68,3.68,0,0,1,.4-1,1.26,1.26,0,0,1,1.13-.78.73.73,0,0,0,.51-.26,5.61,5.61,0,0,1,3.18-1.69ZM47.64,78.64c.16-.73.15-22.61,0-23.29-1.24-.13-1.48.08-1.49,1.29a.25.25,0,0,0,0,.08q0,9.51,0,19A4,4,0,0,0,47.64,78.64ZM91,46.57c-.78-.06-1.52-.08-2.25-.19A7.21,7.21,0,0,1,87.12,46a.63.63,0,0,1-.19-1.14A3.3,3.3,0,0,0,88,42.47c0-.39.09-.79.14-1.18a3.16,3.16,0,0,1,1.25-2.16c.14-.11.27-.24.42-.37a3.06,3.06,0,0,0-2.5-.46c-.87.23-1.06.48-1.06,1.37v7.78c0,.25,0,.5,0,.85l4.7.25ZM69,85.68c.32-.34.58-.62.86-.9a.53.53,0,0,1,.69-.14c.43.25.66,0,.92-.31a7.79,7.79,0,0,0,1.47-3.42c.13-.65.32-1.2,1-1.4a1.93,1.93,0,0,0,.5-.32,7.12,7.12,0,0,0,2.15-2.51,5.85,5.85,0,0,1,2.52-2.9,1.92,1.92,0,0,0,.74-.8.42.42,0,0,0-.37-.67c-.48,0-1,.06-1.44,0a1.83,1.83,0,0,0-1.59.92,3,3,0,0,0-.79,2.36.86.86,0,0,1-.35.81,6.29,6.29,0,0,0-1.71,2.63,1.42,1.42,0,0,1-.63.76,3.88,3.88,0,0,0-1,1,10.2,10.2,0,0,0-.81,1.4,3.39,3.39,0,0,1-1.53,1.68.94.94,0,0,0-.62,1Zm48.8-61.34-.9-2.26-1.48-.16-1.69-.17c-.29,0-.51-.16-.51-.46a.45.45,0,0,1,.52-.45c.48,0,1,.06,1.44.09l1.27.1-1.16-2.69H113c-.26,1.84-.52,3.66-.79,5.53ZM70.63,45a6.29,6.29,0,0,1-1.23-3.81c0-.48-.08-1-.14-1.44a1.24,1.24,0,0,0-1.05-1.08,1.17,1.17,0,0,0-1.34.49,2,2,0,0,0-.4.92c0,.87,0,1.75,0,2.67l1,0a6.53,6.53,0,0,1,.76.08c.29.07.54.23.47.6s-.28.41-.66.37-.67-.12-1-.13c-.84,0-.85,0-1.17.89Zm5.92,42.35c.42-.67.75-1.17,1-1.68a6.26,6.26,0,0,0,.53-1.07.54.54,0,0,0-.51-.78,1.89,1.89,0,0,0-.66.1,7.25,7.25,0,0,1-1,.36,1,1,0,0,0-.84.73,3.41,3.41,0,0,1-1.18,1.64,2.51,2.51,0,0,1-1.79.71c-.25-.7.18-1.1.59-1.49s.61-.51.89-.8a1.1,1.1,0,0,0,.31-1.09l-1.61.89a3.76,3.76,0,0,0-1.53,1.58,1,1,0,0,0-.11,1A13.41,13.41,0,0,0,76.55,87.31Zm-35-9,1,.41a1.89,1.89,0,0,1,1.31,1.54,5.38,5.38,0,0,0,.88,2.21c.5.76.85.83,1.63.37l.28-.2c.8-.66.9-1.1.36-2a15.71,15.71,0,0,0-2.83-3.41,2.93,2.93,0,0,0-.55-.35c-.25.44-.37.94-.68,1.14A4.4,4.4,0,0,1,41.52,78.34Zm17.87,4,.12.2c.35-.16.7-.31,1-.48s.84-.5,1.28-.69a2.19,2.19,0,0,1,2.66.72,2,2,0,0,1,.37,1,.84.84,0,0,1-1.11.91c-.28-.06-.54-.18-.82-.22a2.24,2.24,0,0,0-.93,0,3.43,3.43,0,0,0-2,2.29.64.64,0,0,0,.85,0c.48-.27.94-.54,1.39-.83a5,5,0,0,1,4.12-.91,5.29,5.29,0,0,0,.76.09c-.59-.83-1.17-1.57-1.67-2.36a3.47,3.47,0,0,0-1.91-1.49,1.91,1.91,0,0,0-2.2.45,2.36,2.36,0,0,1-.78.47A2.23,2.23,0,0,0,59.39,82.36ZM93.47,44.88a5.58,5.58,0,0,1-.89-2.69c0-.54-.1-1.07-.17-1.61a1.13,1.13,0,0,0-1.39-1,1.19,1.19,0,0,0-.91,1.12c-.06.73,0,1.46,0,2.19.51.09,1,.15,1.45.26a.39.39,0,0,1,.35.49.42.42,0,0,1-.52.32,7.37,7.37,0,0,0-.93-.11c-.66,0-.7,0-.9.74Zm18.26,39.71v.18a4.63,4.63,0,0,0,.9.12c.82,0,1.64-.12,2.45-.24a5.37,5.37,0,0,1,2.36.08,3.5,3.5,0,0,1,1.87,1.55,1.9,1.9,0,0,0,2.31,1c-.45-.17-.83-.31-1-.79s.24-.84.36-1.23l-1-1.11a.84.84,0,0,1-1,.14,5.42,5.42,0,0,0-3.68-.17,9.55,9.55,0,0,1-2.43.38A10.55,10.55,0,0,0,111.73,84.59Zm-43.08-58L72,27a1.82,1.82,0,0,0-.17-.43,2.91,2.91,0,0,1-.53-1.67,13.64,13.64,0,0,0-.18-1.69,1,1,0,0,0-.89-.89.92.92,0,0,0-1,.7,5.41,5.41,0,0,0-.13,2.2,3.21,3.21,0,0,0,.34.08,4.73,4.73,0,0,1,.93.1.63.63,0,0,1,.33.43c0,.26-.21.39-.47.37s-.5-.09-.75-.11S68.78,26.09,68.65,26.61ZM97.81,84a2.83,2.83,0,0,0,3.8-.72c-.86-.06-1.13-.67-1.3-1.37a9.24,9.24,0,0,0-.21-.91,2.9,2.9,0,0,0-.32-.49A7.26,7.26,0,0,0,97.81,84ZM89.36,28.31a4.69,4.69,0,0,1-.75-2.38,6.78,6.78,0,0,0-.14-1.18A.9.9,0,0,0,87.36,24a.94.94,0,0,0-.71.87,7.24,7.24,0,0,0,0,1.74l1.15.22c.25.06.45.22.34.48a.6.6,0,0,1-.46.27,8.7,8.7,0,0,1-1,0c-.29,0-.45.15-.43.44Zm13.3,1.38a12,12,0,0,1-.47-1.44c-.11-.55-.13-1.13-.2-1.69s-.33-.86-.84-.89a.88.88,0,0,0-.94.81,5.44,5.44,0,0,0,0,1.66,7.55,7.55,0,0,1,1.16.16.52.52,0,0,1,.27.44.56.56,0,0,1-.41.33,3.29,3.29,0,0,1-.75-.1c-.39,0-.66.09-.72.49ZM49.38,86.94a8.27,8.27,0,0,1,.09-1.49,1.41,1.41,0,0,0-.68-1.53.58.58,0,0,0-.9.08A3.15,3.15,0,0,0,47,86.26c0,.45.14.63.6.67S48.76,86.94,49.38,86.94Zm53-1.39a1.69,1.69,0,0,0,2.79.82,1.36,1.36,0,0,0,.42-1.88.59.59,0,0,0-.76-.35A5.78,5.78,0,0,0,102.37,85.55ZM52.78,82.27v.21a2.67,2.67,0,0,1,2.21.26,2.72,2.72,0,0,0,.73.24,1.16,1.16,0,0,0,1.08-.1,1.87,1.87,0,0,1,.61-1.67.42.42,0,0,0,.09-.14c.19-.36.13-.59-.2-.9a.51.51,0,0,0-.75,0c-.32.23-.69.4-1,.61a1.45,1.45,0,0,0-.51.43,2,2,0,0,1-1.84,1A2.6,2.6,0,0,0,52.78,82.27ZM85.32,38.64l.06-.22a1.43,1.43,0,0,0-.46-.2c-1.81-.14-3.63-.25-5.44-.38-1.11-.08-2.21-.21-3.31-.28-.56,0-1.12,0-1.81,0,.16.22.23.41.34.44a3.43,3.43,0,0,0,.84.14c1.62.08,3.24.14,4.86.23,1.13.07,2.26.2,3.4.27C84.3,38.67,84.81,38.64,85.32,38.64ZM80.66,15.23a4.8,4.8,0,0,1-.75-2.68,3.13,3.13,0,0,0,0-.43.72.72,0,0,0-.74-.68.73.73,0,0,0-.86.65,4.58,4.58,0,0,0,0,1.65,7.2,7.2,0,0,1,1.07.18.45.45,0,0,1,.25.38.62.62,0,0,1-.38.36,2.66,2.66,0,0,1-.67-.08c-.31,0-.62,0-.71.4ZM119,26.66c0,.44.32.33.54.34,1.67.14,3.34.25,5,.39s3.28.31,4.92.46c.85.08,1.7.14,2.55.19a2.53,2.53,0,0,0,.6-.16,3,3,0,0,0-.66-.23l-12.73-1.09A.64.64,0,0,0,119,26.66ZM61.22,36.52l-4-.37c-1.44-.12-2.89-.23-4.33-.33-.32,0-.68-.16-1,.23a2.32,2.32,0,0,0,.53.24c.77.08,1.53.13,2.3.19L60.1,37a1.46,1.46,0,0,0,.59,0C60.84,36.92,61,36.75,61.22,36.52Zm-19.64,27a4.63,4.63,0,0,0,.17.55A1.77,1.77,0,0,1,41.54,66a3.15,3.15,0,0,0-.31.64l1.07.42.89-.9-.5-.24a.68.68,0,0,1-.24-1.17,2.4,2.4,0,0,1,.82-.39,4.12,4.12,0,0,1,.51,0,.32.32,0,0,0,.23-.51.87.87,0,0,0-.36-.35A1.94,1.94,0,0,0,41.58,63.55Zm69.5,23.16,0,.27c1.1.11,2.2.24,3.29.33.82.07,1.65.13,2.47.16.53,0,.58-.06.76-.78A20.77,20.77,0,0,0,111.08,86.71Zm-14,.66a16.35,16.35,0,0,0,4.68-.13,1.59,1.59,0,0,0-1.79-1A5.29,5.29,0,0,0,97.13,87.37ZM127.79,87v-.23c-1-.32-1.93-.66-2.91-1a1.21,1.21,0,0,0-1.25.17.77.77,0,0,1-.2,1.28A21.92,21.92,0,0,0,127.79,87Zm-28-61.86A2.23,2.23,0,0,0,98,25.07a13.42,13.42,0,0,0,0,4.38c.13-.16.27-.26.31-.4a9.55,9.55,0,0,0,.37-1.56A3,3,0,0,1,99.8,25.18ZM53.18,79.62A2.5,2.5,0,0,0,52.51,78c-1.6.46-2,1.22-1.51,2.78ZM94,75.73a3.81,3.81,0,0,0-1,2.69,4.36,4.36,0,0,0,.41,1.18c.07.14.28.21.45.32C94.63,77.44,94.66,76.49,94,75.73ZM65.8,22c-.46-.06-.93-.15-1.41-.2l-5.87-.5a1.67,1.67,0,0,0-.59,0c-.11,0-.18.2-.36.42.59.07,1,.14,1.48.18s1.15,0,1.71.08c1.56.13,3.12.28,4.68.42C65.67,22.38,65.83,22.29,65.8,22Zm42.13,18.39v-.22l-11.08-.87c-.06,0-.13.08-.27.17a1.85,1.85,0,0,0,.33.14l10.46.83A3.64,3.64,0,0,0,107.93,40.35Zm-64,21.26a12.12,12.12,0,0,0-.29-2.74c0-.15-.15-.36-.27-.38a4.07,4.07,0,0,0-2.19,0c0,.82.23.92,1,1a1.16,1.16,0,0,1,1.09,1A1.44,1.44,0,0,0,43.92,61.61ZM73.75,22.94c.15.07.23.15.32.16l9.17.75s0,0,0-.06a1,1,0,0,0,0-.19c-1.87-.27-3.76-.37-5.64-.58-1.21-.14-2.44-.18-3.66-.25C74,22.76,73.88,22.85,73.75,22.94Zm58.57,62.81c0-.85,0-1.56,0-2.27a10.66,10.66,0,0,0-.12-2.1.63.63,0,0,0-.3.43,1.27,1.27,0,0,0,.15.48c.36,1.08-.2,1.75-1.31,1.57l-.82-.11A3.93,3.93,0,0,0,132.32,85.75ZM87.52,29.59c-.6,0-1.14,0-1.67,0s-1-.16-1.58-.25v1.2l3.25.24ZM53,85c1.08,1.57,3.23,1.9,4.13.66C55.74,85.64,54.54,84.8,53,85ZM79.5,17.58V16.41c-.56,0-1.07,0-1.57,0s-1-.09-1.58-.14v1.06ZM66.74,29.07a12.11,12.11,0,0,0,3.5.19v-.79l-3.5-.32ZM90,18.46c.06.11.07.15.09.16,1.73.79,3.6.71,5.44.86a.59.59,0,0,0,.61-.46Zm28.18,7.19c-.11-.37-.37-.29-.58-.32L114.67,25c-.76-.07-1.52-.13-2.29-.18-.24,0-.53,0-.51.35A27.48,27.48,0,0,0,118.13,25.65ZM68.87,15.84c-2.33-.2-4.52-.25-6.7-.35-.05,0-.11.11-.21.22a2,2,0,0,0,.5.16l3.14.2c.57,0,1.13.09,1.7.12A2,2,0,0,0,68.87,15.84Zm28.21,8.93a27.4,27.4,0,0,0-6-.5c.06.1.12.26.18.27,1.89.17,3.77.34,5.66.49C97,25,97,24.9,97.08,24.77ZM82.89,87.21a10.67,10.67,0,0,0-3.39-.34,1.52,1.52,0,0,0-1.12.59C79.85,87.5,81.32,88,82.89,87.21Zm18.57-56.15-3.6-.36v.82a9.93,9.93,0,0,0,3.6,0Zm-16-6.95A1.37,1.37,0,0,0,84.3,24a14.92,14.92,0,0,0,.06,3.81C85.19,26.7,84.71,25.25,85.48,24.11ZM51.54,27.69a1.25,1.25,0,0,0,.37.18l3.82.34c.28,0,.57,0,.85,0s.44-.11.47-.48l-5.33-.29S51.62,27.58,51.54,27.69ZM89.65,86.61a2.57,2.57,0,0,0-3.27.54C87.49,87.08,88.69,87.71,89.65,86.61Zm23.74-70.95a3,3,0,0,0-.12,1.56l1.6.14c-.17-.43-.32-.79-.43-1.17S114,15.55,113.39,15.66Zm-7.32,4.55v.22c.23,0,.47.1.7.12,1,.11,1.91.21,2.87.29.22,0,.49,0,.35-.42C108.69,20.43,107.39,20.08,106.07,20.21ZM66.69,23.12a26.62,26.62,0,0,0,.09,3.13c.61-1,.52-2.15.79-3.33Zm-23,47.79a1.21,1.21,0,0,0-.21.11c-.66.6-.91.53-1.21-.33a4.74,4.74,0,0,0-.24-.52c-.51.45-.51.45-.2,1.19a9.22,9.22,0,0,0,2.37.32A.65.65,0,0,0,43.73,70.91ZM42.35,81.63a1,1,0,0,0-.43-1.21.36.36,0,0,0-.58.11,1.26,1.26,0,0,0-.14,1.27Zm34-67.24h.16l.61-3-.81.08c0,.8,0,1.51,0,2.22C76.3,13.94,76.32,14.17,76.33,14.39ZM41.38,61.93a3.52,3.52,0,0,0,.39-.18A.56.56,0,0,0,42,61a1.3,1.3,0,0,0-.52-.49c-.08,0-.37.09-.39.19A1,1,0,0,0,41.38,61.93ZM64.55,87c.58,0,1.16.18,1.67-.34C65.27,86.1,64.76,86.19,64.55,87Zm41.22-61.51c.07.16.11.31.16.32.61.09,1.22.16,1.83.2.07,0,.15-.19.3-.4ZM42.56,69.12a1.2,1.2,0,0,0,1.18-.41l-1-.72Z"/><path class="cls-1" d="M85.1,101.12c.34,2.42.67,4.78,1,7.15,0,.07-.07.15-.1.22-.39,0-.48-.26-.61-.5-.39-.7-.77-1.41-1.17-2.1a11.11,11.11,0,0,0-2.7-3.17A7.64,7.64,0,0,0,76.28,101a7,7,0,0,0-3.86,1.21,10.68,10.68,0,0,0-3.76,4.67,14.85,14.85,0,0,0-1.2,6.93,14.07,14.07,0,0,0,1.88,6.51,8.15,8.15,0,0,0,5.9,4.12,14,14,0,0,0,4.43-.19,9.13,9.13,0,0,0,3.11-1.15,1,1,0,0,0,.6-1c0-1.4,0-2.8,0-4.2a2.23,2.23,0,0,0-1.48-2.19,9.81,9.81,0,0,0-1.54-.47,2.35,2.35,0,0,1-.88-.36,2,2,0,0,1,.41-.13c.34,0,.68,0,1,0a80.33,80.33,0,0,0,8.64,0,5.3,5.3,0,0,1,.69,0s.07.07.15.14c-.16.29-.48.23-.73.3s-.72.16-1.06.29a2.57,2.57,0,0,0-1.77,2.64c0,1.51,0,3,0,4.54v.88c-.53.19-1,.37-1.49.51-1.8.53-3.59,1.17-5.42,1.54a14.56,14.56,0,0,1-10.13-1.35A12.23,12.23,0,0,1,63.3,115a12,12,0,0,1,2.53-9.8,13.65,13.65,0,0,1,10.88-5.4A26.89,26.89,0,0,1,85.1,101.12Z"/><path class="cls-1" d="M1.74,125.06C1.3,123,.88,121,.46,119c-.14-.64-.29-1.27-.43-1.91-.06-.29,0-.3.38-.58.3.49.6,1,.88,1.46a16.74,16.74,0,0,0,4,4.83,7.35,7.35,0,0,0,5,1.84,9.33,9.33,0,0,0,2.35-.4c2.49-.78,3.28-2.77,2.93-5a3.88,3.88,0,0,0-1.3-2.26,10.13,10.13,0,0,0-2.56-1.85c-1.39-.66-2.8-1.28-4.2-1.91a19.58,19.58,0,0,1-3.69-2,12.25,12.25,0,0,1-1.17-1,5.88,5.88,0,0,1-.16-8.19,6.82,6.82,0,0,1,4.59-2.21,16.93,16.93,0,0,1,5,.43c1.59.33,3.19.6,4.9.92a6.59,6.59,0,0,1,.18,1c.08,1.51.13,3,.19,4.52,0,.25,0,.5,0,.73-.37.18-.53,0-.66-.25-.28-.55-.54-1.13-.88-1.66a10.18,10.18,0,0,0-4.15-3.84,7,7,0,0,0-4-.6,6,6,0,0,0-2.36.71,2.32,2.32,0,0,0-1.16,1.41,4.1,4.1,0,0,0,1,4.27,8,8,0,0,0,2.34,1.56c1.16.54,2.35,1,3.52,1.56s2.23,1,3.31,1.58A8.55,8.55,0,0,1,18,115.67a6.85,6.85,0,0,1-2.81,9.2,10.23,10.23,0,0,1-3.94,1,17.84,17.84,0,0,1-5.34-.58,13.18,13.18,0,0,0-1.74-.38,10.75,10.75,0,0,0-1.7,0C2.22,125,2,125,1.74,125.06Z"/><path class="cls-1" d="M106.74,99.15a2.68,2.68,0,0,1,.59-.3l5.44-.65c0,.47.07.92.07,1.37,0,2.28,0,4.56,0,6.85,0,1.54-.07,3.08-.11,4.61,0,.29,0,.57,0,.88.45.08.73-.19,1-.35a8.32,8.32,0,0,1,7.36-.24,6.49,6.49,0,0,1,4.15,4.89c.66,3.65-.66,7.06-4,8.73a8.48,8.48,0,0,1-3.3.81,13.41,13.41,0,0,1-6.7-1.43l-.6-.32a1.57,1.57,0,0,1-.85-1.52c0-6.71,0-13.42,0-20.12,0-.32,0-.63,0-1a1.73,1.73,0,0,0-1.18-1.71C108.07,99.49,107.51,99.37,106.74,99.15Zm5.77,19c0,.48,0,1,0,1.45a7.18,7.18,0,0,0,.8,3.12,3.75,3.75,0,0,0,.92,1.1,5.16,5.16,0,0,0,5.26.11,5.74,5.74,0,0,0,2.22-3.34,10,10,0,0,0,.15-4.24c-.43-2.59-2.39-4.9-5.51-4.53a3.64,3.64,0,0,0-3.38,2.54A10.37,10.37,0,0,0,112.51,118.16Z"/><path class="cls-1" d="M47,124.9c-.08.43-.32.44-.55.43l-7.69-.14c-.07,0-.13-.08-.28-.17a2.5,2.5,0,0,1,.45-.26c.32-.11.66-.19,1-.29a1.69,1.69,0,0,0,1.28-1.72c0-.17,0-.34,0-.51v-8a4,4,0,0,0,0-.6,1.33,1.33,0,0,0-1-1.21c-.38-.09-.78-.16-1.16-.26a1.57,1.57,0,0,1-.37-.18c.45-.42,1.62-.64,5.47-1.06l.13,1.75.84-.45c.54-.32,1.07-.66,1.62-1a5.59,5.59,0,0,1,5.2,0,4.32,4.32,0,0,1,2.56,3.87c.08,1.51,0,3,0,4.54,0,.91,0,1.83,0,2.74,0,1.46.37,1.91,1.77,2.3l.73.21c.06.42-.18.48-.45.46-.51,0-1-.1-1.54-.1-1.82,0-3.65,0-5.48,0-.16,0-.33,0-.64,0,.2-.19.28-.33.41-.38.39-.16.81-.27,1.21-.42a1.34,1.34,0,0,0,.91-1.13,6,6,0,0,0,.1-.94c0-1.91,0-3.82,0-5.73a8.32,8.32,0,0,0-.24-1.86,2.86,2.86,0,0,0-2.74-2.18,4.93,4.93,0,0,0-3.92,1.33,1.27,1.27,0,0,0-.42,1c0,2.57,0,5.14,0,7.71a1.75,1.75,0,0,0,1.56,2Z"/><path class="cls-1" d="M25.91,114.64a8.81,8.81,0,0,1-3-.66,3.92,3.92,0,0,1,1.95-2.76,4.28,4.28,0,0,1,1.2-.42,11.09,11.09,0,0,1,4.59.06A4.16,4.16,0,0,1,33.91,114a4.36,4.36,0,0,1,.1,1c0,2.17,0,4.33,0,6.5a4.35,4.35,0,0,0,.08,1,1.34,1.34,0,0,0,1.75,1.06,3.92,3.92,0,0,0,1-.44c.29-.17.54-.41.82-.61s.42-.06.53.23a13.24,13.24,0,0,1-2.5,2.4,2.32,2.32,0,0,1-3.31-.2l-1.33-1.27-.74.39c-.87.43-1.72.88-2.61,1.28a6,6,0,0,1-3.28.34,3.76,3.76,0,0,1-3-2.82A3.59,3.59,0,0,1,22.76,119a7,7,0,0,1,3.3-1.31c1.32-.19,2.66-.27,4-.4l1.05-.08c0-1.16.07-2.24,0-3.32a2.86,2.86,0,0,0-3.48-2.31,2.15,2.15,0,0,0-1.42,1.7C26.07,113.67,26,114.1,25.91,114.64Zm5.15,6.21h0c0-.57-.07-1.13-.12-1.7a.5.5,0,0,0-.46-.51,6.87,6.87,0,0,0-3.94.1,3.48,3.48,0,0,0-1.51,1.09,2.42,2.42,0,0,0,1.17,3.85,5.13,5.13,0,0,0,3.79-.53c.74-.37,1.21-.81,1-1.7A3,3,0,0,1,31.06,120.85Z"/><path class="cls-1" d="M101,117.2c0-1.22.07-2.36,0-3.49a2.77,2.77,0,0,0-2.53-2.19A1.88,1.88,0,0,0,96.23,113c-.19.53-.27,1.1-.42,1.69a8.45,8.45,0,0,1-3-.66,3.84,3.84,0,0,1,2.92-3.13,10.62,10.62,0,0,1,4.92,0,4.21,4.21,0,0,1,2.8,2.07,3.63,3.63,0,0,1,.48,1.88c0,2.22,0,4.45,0,6.67a3.59,3.59,0,0,0,.14,1.09,1.32,1.32,0,0,0,1.64,1,2.91,2.91,0,0,0,1.36-.67l.54-.42c.22-.16.37,0,.53.18a8.75,8.75,0,0,1-3.2,2.84,1.88,1.88,0,0,1-2.22-.28c-.57-.51-1.13-1-1.7-1.58L98.52,125a7,7,0,0,1-3.72.75,3.87,3.87,0,0,1-3.4-2.7,3.67,3.67,0,0,1,1.28-4,6.77,6.77,0,0,1,3.3-1.32c1.32-.19,2.66-.27,4-.4Zm-.2,1.56a7,7,0,0,0-2.63-.35A4.92,4.92,0,0,0,96,119a2.74,2.74,0,0,0-1.41,3.11c.2,1.06,1.16,1.67,2.52,1.74a6.17,6.17,0,0,0,3.54-1.07.76.76,0,0,0,.38-.71c0-.82,0-1.65,0-2.47A4.08,4.08,0,0,0,100.8,118.76Z"/><path class="cls-1" d="M165.1,117.19c-.41,0-.74.09-1.07.09-3,0-5.93,0-8.9,0h-.91a4,4,0,0,0,.09,2,6.43,6.43,0,0,0,1.45,3.15,5,5,0,0,0,4.72,1.38,6.72,6.72,0,0,0,3.52-1.62l.43-.36.54.48c0,.11,0,.18,0,.22a8.67,8.67,0,0,1-5.05,3.13c-2.1.36-4.17.3-5.93-1.15a7.59,7.59,0,0,1-2.68-4.36,7.85,7.85,0,0,1,2.22-7.76,6,6,0,0,1,4.26-1.71,10.64,10.64,0,0,1,1.7.08,6.4,6.4,0,0,1,5.43,5.23C165,116.32,165,116.71,165.1,117.19Zm-3.68-1.12a7.49,7.49,0,0,0-.42-2.34,2.49,2.49,0,0,0-1.4-1.54,3.42,3.42,0,0,0-3.91.43,4,4,0,0,0-1.41,3.26,2.3,2.3,0,0,0,.62.18C157.06,116.08,159.22,116.07,161.42,116.07Z"/><path class="cls-1" d="M174.81,125.08c-.06,0-.12.12-.18.12-2.77,0-5.53,0-8.3,0-.06,0-.12-.08-.28-.18a2.67,2.67,0,0,1,.41-.19c.36-.09.72-.15,1.08-.25a1.71,1.71,0,0,0,1.3-1.53,11,11,0,0,0,.14-1.62q0-9.75,0-19.51c0-.14,0-.28,0-.42a2,2,0,0,0-2-2.17c-.16,0-.32-.06-.46-.09-.11-.32.06-.38.29-.41l5.11-.62c0,.53.08,1,.08,1.52,0,7.07,0,14.14,0,21.22a17.5,17.5,0,0,0,.15,2,1.79,1.79,0,0,0,1.56,1.68l1.15.23Z"/><path class="cls-1" d="M131.83,110.85l.27,1.89c.32-.2.58-.35.82-.52.82-.57,1.61-1.19,2.46-1.71a3.17,3.17,0,0,1,2.8-.21,3,3,0,0,1,1.73,2.46.78.78,0,0,1-.28.56,11.72,11.72,0,0,1-2.62,1.24c0-.25.05-.46.09-.67a1.54,1.54,0,0,0-.61-1.58,1.49,1.49,0,0,0-1.62-.11,8,8,0,0,0-2.7,2.19,1,1,0,0,0-.16.63c0,2.54,0,5.08,0,7.62,0,1.15.36,1.57,1.46,1.9l1.34.38c-.29.46-.68.37-1,.37-2.31,0-4.62-.05-6.93-.09-.18,0-.35,0-.73-.11a3.69,3.69,0,0,1,.56-.34c.29-.1.61-.15.9-.26a1.62,1.62,0,0,0,1.31-1.76c0-.14,0-.29,0-.43v-8.22c0-1.2-.21-1.47-1.39-1.8-.27-.08-.56-.1-.83-.17a2.22,2.22,0,0,1-.47-.22,3.05,3.05,0,0,1,.5-.26,3.86,3.86,0,0,1,.59-.12Z"/><path class="cls-1" d="M149.62,125.13a3.31,3.31,0,0,1-1.4.09c-2.41,0-4.81,0-7.22,0l0-.16a1.05,1.05,0,0,1,.31-.17c.37-.08.74-.1,1.1-.19a1.58,1.58,0,0,0,1.27-1.34,8.9,8.9,0,0,0,.14-1.45c0-2.08,0-4.17,0-6.25,0-.51-.08-1-.1-1.53a2.22,2.22,0,0,0-1.58-2c-.38-.17-.78-.3-1.13-.43,0-.43.2-.44.44-.45l2.39-.16,2.77-.15a3.35,3.35,0,0,1,.19,1.4c0,3.17,0,6.34,0,9.5a8.79,8.79,0,0,0,.14,1.45,1.55,1.55,0,0,0,1.5,1.49c.4.08.81.14,1.21.21Z"/><path class="cls-1" d="M114,139l-.72-.51h2.94c0,.07,0,.16,0,.17a1.11,1.11,0,0,0-.61,1.36l.57,3.46a1,1,0,0,0,.85.88l-.14.15H114c0-.08,0-.13,0-.14,1-.48,1-.55.82-1.63-.11-.62-.19-1.24-.3-1.86a3.22,3.22,0,0,0-.28-.9,29.36,29.36,0,0,0-1.89,4.59,6.35,6.35,0,0,1-.7-1.68c-.22-.49-.41-1-.63-1.5s-.47-1-.73-1.6a10.51,10.51,0,0,0-.47,3.73c.07.55.51.68,1,1h-2.6a1.88,1.88,0,0,0,1.06-1.71c.12-1,.27-2,.45-3,.09-.53,0-.89-.55-1.08-.09,0-.16-.12-.31-.25h2.81c-.13.22-.33.41-.34.62a1.69,1.69,0,0,0,.19.73c.33.79.68,1.57,1,2.35A8.3,8.3,0,0,0,114,139Z"/><path class="cls-1" d="M82,144.42a9,9,0,0,1-3.07,0,1.07,1.07,0,0,1,.33-.16.6.6,0,0,0,.53-.66c0-.66,0-1.31,0-2.07l-1.47,0H76.89a9.42,9.42,0,0,0,0,2.31c0,.16.21.31.36.43s.28.1.39.29H74.51c.25-.16.32-.24.41-.25.47-.06.59-.37.59-.79,0-1.28,0-2.57,0-3.85,0-.63-.43-.79-.82-1.1h3c-1,.64-1,.81-.79,2.45.9.07,1.83,0,2.79,0a3.92,3.92,0,0,0,.07-1.7c0-.16-.2-.32-.34-.44s-.32-.17-.45-.36h3.14a3.55,3.55,0,0,1-.48.28.73.73,0,0,0-.51.8c0,1.32,0,2.63,0,3.94C81.1,144.09,81.54,144.21,82,144.42Z"/><path class="cls-1" d="M44.35,138.47h2.48c-.45.6-.46.6-.19,1.37.33.94.66,1.87,1.07,3,.18-.36.3-.56.39-.77s.2-.48.29-.72a2,2,0,0,0-.72-2.66s0-.09-.07-.2h2.6s0,.13,0,.14c-.68.41-.7.41-.47,1.11.35,1,.72,2,1.13,3.18a6.27,6.27,0,0,0,.36-.63c.3-.77.61-1.53.89-2.31s.29-.84-.46-1.47h2.21c-1.18.62-1.36,1.69-1.79,2.59S51.33,143,51,143.87c-.11.26-.24.51-.35.75-.37-.06-.42-.33-.51-.57-.25-.7-.5-1.39-.77-2.08-.09-.26-.22-.51-.4-.92l-1.51,3.5c-.45,0-.46-.35-.54-.57-.47-1.28-.93-2.57-1.39-3.86A2.64,2.64,0,0,0,44.35,138.47Z"/><path class="cls-1" d="M158.2,138.26a9.94,9.94,0,0,1,1.57.34,3,3,0,0,1,2,2.83,3.05,3.05,0,0,1-1.82,2.94,4.08,4.08,0,0,1-4.4-.64,3.1,3.1,0,0,1-.71-3.4,2.9,2.9,0,0,1,2.49-1.94,8.12,8.12,0,0,1,.85-.07Zm-2.27,3.15a13.51,13.51,0,0,0,.34,1.58,1.87,1.87,0,0,0,1.79,1.35,2,2,0,0,0,1.95-1.13,3.82,3.82,0,0,0,0-3.38,1.86,1.86,0,0,0-1.76-1.12,1.8,1.8,0,0,0-1.88,1.06A14.25,14.25,0,0,0,155.93,141.41Z"/><path class="cls-1" d="M171.69,142.76c0-1.13,0-2.09,0-3.06a.9.9,0,0,0-.66-.9,3.55,3.55,0,0,1-.5-.29H173c-.27.27-.62.49-.76.8a2.89,2.89,0,0,0-.15,1.18c0,1.11,0,2.22,0,3.33,0,.27,0,.55,0,.8-.54.09-.67-.27-.87-.53l-2.84-3.53c-.21-.26-.43-.52-.64-.79l-.19.09c0,.21,0,.41,0,.62,0,.77,0,1.54,0,2.31,0,1.06.12,1.21,1.16,1.58-.48.31-1,.14-1.39.16a3.41,3.41,0,0,1-1.4-.09c1.23-.59,1.23-.59,1.24-1.9,0-.83,0-1.66,0-2.48a1,1,0,0,0-.86-1.24,2.21,2.21,0,0,1-.45-.29c.79,0,1.42-.09,2-.07.18,0,.38.23.52.39.85,1,1.68,2,2.52,3Z"/><path class="cls-1" d="M132.88,138.64a1.66,1.66,0,0,1,.12.33c0,.39,0,.79,0,1.35-.2-.28-.31-.45-.43-.61a2.09,2.09,0,0,0-1.7-1c-.56,0-.91.22-1,.61a.86.86,0,0,0,.53,1c.36.22.77.37,1.14.58a6.47,6.47,0,0,1,1.23.76,1.67,1.67,0,0,1-.43,2.87,2.62,2.62,0,0,1-1.51.2l-1.94-.29-.31-1.81.11,0c.16.24.3.48.47.7a2.33,2.33,0,0,0,2.33,1,.92.92,0,0,0,.79-.68.76.76,0,0,0-.35-.89,10.8,10.8,0,0,0-1.1-.63c-.45-.25-.93-.45-1.35-.73a1.54,1.54,0,0,1-.75-1.45,1.33,1.33,0,0,1,1.2-1.42,6.52,6.52,0,0,1,1.53,0A14.27,14.27,0,0,1,132.88,138.64Z"/><path class="cls-1" d="M138.22,144.44l-.35-1.92c.33.16.39.44.54.65a2.31,2.31,0,0,0,2.19,1.06c.57-.06.89-.27,1-.66a.94.94,0,0,0-.58-1.12c-.49-.28-1-.49-1.52-.76a4.9,4.9,0,0,1-.92-.61,1.54,1.54,0,0,1-.46-1.71,1.37,1.37,0,0,1,1.35-1,9.9,9.9,0,0,1,1.54,0c.39,0,.77.15,1.26.24l.09,1.54-.12,0c-.11-.18-.21-.36-.33-.54a2.09,2.09,0,0,0-1.71-1c-.53,0-.85.17-1,.54a.83.83,0,0,0,.44,1c.34.21.72.34,1.07.53a9.53,9.53,0,0,1,1.37.85,1.66,1.66,0,0,1,.41,2.09,1.59,1.59,0,0,1-1,.79,4.45,4.45,0,0,1-1.26.17,8.66,8.66,0,0,1-1-.16C139,144.49,138.62,144.48,138.22,144.44Z"/><path class="cls-1" d="M146.93,101.86a2.19,2.19,0,0,1-2.08,2.08,2.24,2.24,0,0,1-2-2.18,2.09,2.09,0,0,1,2.07-2.06A2.22,2.22,0,0,1,146.93,101.86Z"/><path class="cls-1" d="M7,142.77a.73.73,0,0,1,0,.3,3.43,3.43,0,0,1-4.55,1.26A3.32,3.32,0,0,1,1.12,140a2.93,2.93,0,0,1,2.17-1.62,6.73,6.73,0,0,1,2.79.21.58.58,0,0,1,.35.41,7.18,7.18,0,0,1-.09,1.72c-.13-.27-.25-.54-.4-.81a2.13,2.13,0,0,0-1.78-1.16,1.7,1.7,0,0,0-1.68,1.08,4,4,0,0,0-.25,2.26,2.36,2.36,0,0,0,3.93,1.29c.24-.23.46-.48.69-.72Z"/><path class="cls-1" d="M94.78,138.61l.87-.27c.13.28.28.55.38.82.49,1.31,1,2.62,1.46,3.93.34.89.34.89,1,1.32a7.34,7.34,0,0,1-3,0l.34-.14c.57-.23.63-.32.43-.89-.58-1.57-.23-1.37-2-1.37a1.78,1.78,0,0,0-.37.08c-.16.41-.34.83-.47,1.26s-.1.6.42.94a1.52,1.52,0,0,1,.2.24H91.87a5.46,5.46,0,0,0,.8-.74,5.22,5.22,0,0,0,.45-.92c.46-1.07.93-2.14,1.37-3.22A9.91,9.91,0,0,0,94.78,138.61Zm.86,2.85c-.33-.62-.31-1.24-.83-1.78l-.67,1.78Z"/><path class="cls-1" d="M27.71,138.47h3.15c0,.09,0,.17-.05.18-.67.38-.71.47-.29,1.08s.84,1.13,1.34,1.8c.38-.72.72-1.31,1-1.92s.19-.52-.29-.9l-.13-.11s0,0-.05-.12h2.47c-1.29.64-1.71,1.78-2.41,2.68a1.86,1.86,0,0,0-.39,1.28c0,.34,0,.68,0,1,0,.6,0,.59.63.82a1.27,1.27,0,0,1,.2.16,9.18,9.18,0,0,1-3-.05,2.35,2.35,0,0,1,.37-.15.6.6,0,0,0,.53-.66,11.69,11.69,0,0,0,0-1.45,1.37,1.37,0,0,0-.31-.68c-.5-.7-1-1.4-1.56-2A8.55,8.55,0,0,0,27.71,138.47Z"/><path class="cls-1" d="M69.29,144.52H66.23c0-.07,0-.14,0-.14.72-.15.84-.65.83-1.28,0-1.17,0-2.34,0-3.51,0-.2,0-.39-.06-.61-1.12-.26-1.64.37-2,1.29a4.9,4.9,0,0,1,0-1.79h5.34c.35.53.11,1.14.16,1.75-.44-.85-.94-1.52-2-1.25a2.21,2.21,0,0,0-.08.42c0,1.23,0,2.46,0,3.68C68.37,144,68.39,144,69.29,144.52Z"/><path class="cls-1" d="M23.92,140.34c-.58-1.31-.87-1.49-2-1.34,0,.26,0,.54,0,.82,0,1.05,0,2.11,0,3.17s0,1,.82,1.52h-3c.11-.1.16-.19.22-.2.57-.12.69-.54.69-1,0-.77,0-1.54,0-2.31s0-1.3,0-2c-1.2-.31-1.68.39-2.15,1.19v-1.72h5.36A2.69,2.69,0,0,1,23.92,140.34Z"/><path class="cls-1" d="M14.1,138.45c-.78.56-.8.58-.81,1.46s0,2.05,0,3.07,0,1,.79,1.43a8.08,8.08,0,0,1-3.06,0c.21-.08.32-.14.44-.17a.62.62,0,0,0,.52-.68c0-1.34,0-2.68,0-4,0-.6-.46-.72-.83-.9,0-.08,0-.11,0-.13a.08.08,0,0,1,.06,0Z"/><path class="cls-1" d="M121,144.4c.93-.39.94-.39.94-1.3s0-2,0-3c0-.69,0-1.31-.82-1.61h2.94l0,.11c-.09,0-.17.1-.26.13a.75.75,0,0,0-.59.83c0,1.31,0,2.62,0,3.93,0,.6.42.71.92.86A7.59,7.59,0,0,1,121,144.4Z"/><path class="cls-1" d="M60.64,144.55H58.18a5.67,5.67,0,0,1-.58-.05c0-.09,0-.17,0-.18.88-.33.89-.33.89-1.27s0-1.82,0-2.73c0-.74.17-1.57-.89-1.84h3.05c0,.1,0,.18-.07.19-.71.14-.86.61-.84,1.26,0,1,0,2,0,3.07S59.77,144,60.64,144.55Z"/><path class="cls-1" d="M147.15,138.48h3.2c-.14.13-.19.21-.24.22-.58.07-.76.45-.77,1s0,1.2,0,1.79V143c0,1,0,1,.87,1.38a8,8,0,0,1-3,.09c0-.05,0-.14,0-.15.86-.34.87-.34.87-1.21,0-1.05,0-2.11,0-3.17,0-.64-.14-1.12-.83-1.28C147.21,138.65,147.2,138.57,147.15,138.48Z"/><path class="cls-1" d="M122.9,58.81c0-2.31,0-4.62,0-6.93a4.26,4.26,0,0,1,.73-2.42,3.33,3.33,0,0,1,3.32-1.52,4.17,4.17,0,0,1,3.91,3.18A3.86,3.86,0,0,1,131,52.3q0,6.8,0,13.61c0,.17,0,.34,0,.51a.54.54,0,0,1-.55.54c-.15,0-.29,0-.43,0l-6.08,0c-.11,0-.23,0-.34,0-.54-.06-.69-.2-.7-.77,0-1,0-2,0-3.08Zm4,4.84c0-.3.05-.47.05-.63V54.73a5.82,5.82,0,0,0-.07-.93c-.11-.74-.48-1.06-1.34-1.19a1.24,1.24,0,0,0-1.45.78,3.93,3.93,0,0,0-.27,1.32c0,2.7,0,5.41,0,8.11,0,.22,0,.43.07.68Zm-3,2.17a19.53,19.53,0,0,0,4.28,0l-.46-.62a1.35,1.35,0,0,0-1.29-.63c-.59,0-1.19-.07-1.78-.09a6.63,6.63,0,0,0-.75,0Z"/></g></g></g></svg>