<svg xmlns="http://www.w3.org/2000/svg" viewBox="0 0 199.79 44.24"><defs><style>.cls-1{fill:#fff;}</style></defs><title>Verizon</title><g id="Layer_2" data-name="Layer 2"><g id="Layer_1-2" data-name="Layer 1"><path class="cls-1" d="M48.14,34.79h8.51c-.26.71-.45,1.39-.75,2a12.36,12.36,0,0,1-7.37,6.41A16.36,16.36,0,0,1,34,41.69a13.32,13.32,0,0,1-5.89-8.53,16.5,16.5,0,0,1,1.36-12.07A13.71,13.71,0,0,1,40.79,13.7a15.83,15.83,0,0,1,6.49.64,12.61,12.61,0,0,1,6.92,5.35c2.28,3.53,2.82,7.5,2.86,11.66H36.27a7.64,7.64,0,0,0,1,3.35,6.42,6.42,0,0,0,6.69,3A5.09,5.09,0,0,0,48.14,34.79ZM36.33,25.6H48a5.61,5.61,0,0,0-5-5.64C39.81,19.68,37.12,21.25,36.33,25.6Z"/><path class="cls-1" d="M148.62,14.49h8.49v3.9l.13,0,.37-.5c3.83-5.51,10.77-5,14.13-2.71a9.74,9.74,0,0,1,4.1,6.58,16.51,16.51,0,0,1,.25,2.89c0,6,0,12,0,18.06v.53h-8.78V26.42a6.91,6.91,0,0,0-.56-3A4,4,0,0,0,163.22,21a5.23,5.23,0,0,0-5.73,4.87,13.69,13.69,0,0,0-.1,1.69q0,7.53,0,15.05v.63h-8.76Z"/><path class="cls-1" d="M116,29.36c.09-4.78,1.41-8.6,4.59-11.64a14.42,14.42,0,0,1,8.6-3.91,16.32,16.32,0,0,1,9.19,1.37,14.12,14.12,0,0,1,8.08,11.06,15.85,15.85,0,0,1-1.62,10.31A14,14,0,0,1,134.18,44a16,16,0,0,1-10.81-1.76A14.16,14.16,0,0,1,116.27,32C116.08,31,116,29.94,116,29.36Zm21.77.38c0-3-.37-4.84-1.12-6.3A5.87,5.87,0,0,0,130,20.27a5.74,5.74,0,0,0-4.36,4.07,14,14,0,0,0-.67,5.78,11,11,0,0,0,1.16,4.53,5.42,5.42,0,0,0,3.34,2.84,5.93,5.93,0,0,0,7.48-3.69A11.33,11.33,0,0,0,137.75,29.74Z"/><path class="cls-1" d="M101.54,36.38h14.07v6.91H91V36.62l13.6-15.19H91V14.51h24v.56c0,1.87,0,3.74,0,5.62a1.24,1.24,0,0,1-.36.93Q108.35,28.7,102,35.81C101.9,36,101.77,36.1,101.54,36.38Z"/><path class="cls-1" d="M0,14.49H9.06L14.69,33h.14l5.62-18.5h8.84q-5,14.43-10,28.8H10Z"/><path class="cls-1" d="M77.22,14.52V22.1L75.67,22a8.39,8.39,0,0,0-3.58.56,6.5,6.5,0,0,0-4,5.38,15.83,15.83,0,0,0-.18,2.39q0,6.15,0,12.29v.63H59.18V14.51h8.36V19.2l.13.05c.11-.15.22-.29.32-.44a9.46,9.46,0,0,1,3.81-3.74,8.48,8.48,0,0,1,4.94-.68A4.94,4.94,0,0,1,77.22,14.52Z"/><path class="cls-1" d="M79.7,14.49h8.78V43.27H79.7Z"/><path class="cls-1" d="M176,14.51h4.4c1.35,2.9,2.7,5.81,4.12,8.85L195.42,0h4.37L186.31,28.91h-3.58Q179.39,21.77,176,14.51Z"/><path class="cls-1" d="M79.71,4.21h8.76V12H79.71Z"/></g></g></svg>