<svg xmlns="http://www.w3.org/2000/svg" viewBox="0 0 186.8 60.2"><defs><style>.cls-1{fill:#fff;}</style></defs><title>Westfield</title><g id="Layer_2" data-name="Layer 2"><g id="Layer_1-2" data-name="Layer 1"><path class="cls-1" d="M0,8.65C1.51,8,3,7.45,4.54,6.83L18.87,1l.46-.18c1.72,10.83,3.43,21.61,5.15,32.51l.39-.36,8.92-8.8a.83.83,0,0,0,.27-.81c-.54-3.3-1.06-6.61-1.59-9.91a5.5,5.5,0,0,0-.16-.58,3.17,3.17,0,0,0-4-2.35c-1.14.25-2.23.67-3.34,1-.13,0-.26.1-.45.18l-.82-2L43.46.7q2.63,15.84,5.22,31.6l.2.14a2,2,0,0,1,.25-.46c2-2.12,4-4.28,6.17-6.33a4.66,4.66,0,0,0,1.41-4.11c-.24-2.1-.59-4.19-.92-6.27a34.12,34.12,0,0,0-.71-3.76c-.64-2.3-1.81-3-4.16-2.52-1,.21-2,.54-3.1.82l-.68-1.87L65.08,0c.15.59.29,1.12.41,1.66.65,3,1.4,5.93,1.93,8.93A17.7,17.7,0,0,1,67.6,17a8.43,8.43,0,0,1-1.93,3.74c-1.23,1.49-2.53,2.93-3.88,4.3-4,4.09-8.1,8.13-12.14,12.2a1.12,1.12,0,0,0-.28.72,32.22,32.22,0,0,1-.72,6.86,11.15,11.15,0,0,1-2.06,4,54.93,54.93,0,0,1-7.72,8c-1.28,1.14-2.6,2.23-3.95,3.38l-1.75-1.9c.12-.15.21-.28.32-.41A29.16,29.16,0,0,0,36.79,53a9.3,9.3,0,0,0,.9-6.18C37,43,36.5,39.13,35.91,35.3c-.34-2.24-.68-4.49-1-6.73a2.2,2.2,0,0,0-.08-.23c-.14.14-.26.24-.36.35-3,3.27-6,6.56-9,9.83a1.06,1.06,0,0,0-.3.88,12.07,12.07,0,0,1-2.48,8.89A63.22,63.22,0,0,1,15.44,56c-1.19,1.1-2.42,2.15-3.64,3.22-.15.13-.31.25-.5.42L9.65,57.89c.77-.89,1.55-1.74,2.27-2.63a8.69,8.69,0,0,0,2-3.65,13.33,13.33,0,0,0,.16-4.32c-1-8.43-2.67-16.74-4.24-25.07C9.27,19.14,8.68,16.05,8,13a9.47,9.47,0,0,0-.95-2.57A2.43,2.43,0,0,0,4,9.19c-1,.31-2,.66-3.06,1l-.5.16L0,8.84Z"/><path class="cls-1" d="M104,36.61H96.52c-.37,1.34-.76,2.66-1.11,4-1,3.93-2,7.86-3,11.8a2.15,2.15,0,0,0,.12,1.17,1.13,1.13,0,0,0,1.59.8,23.68,23.68,0,0,0,2.38-1.15,5.34,5.34,0,0,0,.5-.33l.79,1.68a33.1,33.1,0,0,1-6.51,4.12,1.88,1.88,0,0,1-1.9-.18,10.21,10.21,0,0,1-2.84-2.87,1.79,1.79,0,0,1-.2-1.44c.62-2.68,1.2-5.37,1.88-8,.77-3,1.63-6,2.44-9,.06-.19.09-.38.15-.62H88L88.28,34h3.46c.19-.74.37-1.44.56-2.15a11.61,11.61,0,0,1,.52-1.74,4.49,4.49,0,0,0,0-3.36l-.25-.74,4.74-2.25a3.86,3.86,0,0,1,1.52,3.6c-.25,2.05-.65,4.08-1,6.12,0,.15,0,.3-.07.48h6.75c.32-1.16.63-2.33,1-3.49.55-2,1.11-4,1.67-6a5.39,5.39,0,0,1,2.29-3.14c1.87-1.23,3.7-2.53,5.62-3.68a9.42,9.42,0,0,1,5.09-1.48A5.34,5.34,0,0,1,124.92,20a5.75,5.75,0,0,1-.11,1.89A37.29,37.29,0,0,1,123,29.1c0,.11-.09.22-.16.39h-5c.2-.61.38-1.19.55-1.76a13.92,13.92,0,0,0,.69-4,3.21,3.21,0,0,0-.87-2.48,2,2,0,0,0-2.52-.38,5.18,5.18,0,0,0-2.49,2.8c-.71,2.07-1.36,4.17-2,6.27-.39,1.33-.65,2.69-1,4.11H122a2.78,2.78,0,0,1-.06.42q-2.48,9-5,17.93a4.67,4.67,0,0,0-.22,1.1,1.24,1.24,0,0,0,1.66,1.31,17.59,17.59,0,0,0,2-1l1,1.56s-.07.11-.12.14c-1.52,1-3,2.09-4.55,3.11a2.1,2.1,0,0,1-2.35,0,7.83,7.83,0,0,1-1.59-1.28,8.94,8.94,0,0,1-1.91-3.12,2,2,0,0,1,0-1.23c1.2-4.45,2.38-8.92,3.56-13.38a3.2,3.2,0,0,0,0-1.84,1.3,1.3,0,0,0-.94-.94,11.66,11.66,0,0,0-3.91-.27c-2.13,7.3-4.25,14.56-6.37,21.85H97.73C99.8,51.18,101.88,43.93,104,36.61Z"/><path class="cls-1" d="M166.41,55.47c-1.39.66-2.7,1.31-4,1.92-.56.25-1.16.43-1.75.64a3,3,0,0,1-2.6-.24,11.79,11.79,0,0,1-3.52-3.11c-.11-.14-.23-.28-.34-.43-.9.53-1.75,1.07-2.64,1.55-1.32.7-2.68,1.33-4,2a2.79,2.79,0,0,1-2.56.09,4.72,4.72,0,0,1-3.06-3.39,5.82,5.82,0,0,1,.23-2.68c2.64-9.45,5.16-18.93,8.22-28.26.26-.8.57-1.58.82-2.38a6,6,0,0,1,3.1-3.57,14.08,14.08,0,0,1,5.27-1.47c1.08-.11,2.17-.13,3.26-.17a4.27,4.27,0,0,1,.59,0l.15,1.61a13.74,13.74,0,0,0-1.89.37A16.69,16.69,0,0,0,159,19.1a4.78,4.78,0,0,0-2.23,2.77C155,27.17,153.49,32.58,152,38c-1.22,4.5-2.48,9-3.72,13.49-.05.18-.1.36-.14.54a1.47,1.47,0,0,0,2,1.87,6.92,6.92,0,0,0,3.14-2.27,2.29,2.29,0,0,0,.28-1,86.81,86.81,0,0,1,3-10.83,9.77,9.77,0,0,1,7-6.5,9.64,9.64,0,0,1,3.26-.68,9.76,9.76,0,0,1,3.75,1.23l.5.24c.25-.88.48-1.71.72-2.54q1.46-5,2.9-10a5,5,0,0,1,2.52-3.14,19.3,19.3,0,0,1,8.57-2.47h.83l.2,1.45c-1.08.37-2.14.67-3.14,1.11a10.18,10.18,0,0,0-2,1.21,4.22,4.22,0,0,0-1.48,2.16,283.57,283.57,0,0,0-8.18,29,8.58,8.58,0,0,0-.14,2.32c0,1,.62,1.33,1.57,1.12a10.38,10.38,0,0,0,3.33-1.65l1.06-.74,1,2.1-4.44,2.83c-.56.35-1.13.66-1.68,1a2.94,2.94,0,0,1-2.73.26,8.77,8.77,0,0,1-3.23-2.25Zm-3.95-1.35a4.14,4.14,0,0,0,4-2.82c.17-.5.35-1,.48-1.51.89-3.43,1.76-6.86,2.64-10.29a1.53,1.53,0,0,0,0-.6,3.81,3.81,0,0,0-3.27-3.24,3.32,3.32,0,0,0-3.63,2.62c-.52,1.74-1,3.5-1.48,5.25-.62,2.18-1.3,4.35-1.85,6.54A3,3,0,0,0,162.46,54.12Z"/><path class="cls-1" d="M57,47.66c-1.35,2.29-1.29,4.27.22,5.88a2.56,2.56,0,0,0,2.74.81,14.68,14.68,0,0,0,4.41-2.28l.5-.35,1.22,1.77-.19.09c-2.56,1.54-5.11,3.1-7.67,4.62a4.1,4.1,0,0,1-4.27,0,13.06,13.06,0,0,1-4.15-3.85,3.43,3.43,0,0,1-.44-2.25,17.4,17.4,0,0,1,.86-4.34c.78-2.49,1.54-5,2.36-7.47a10.72,10.72,0,0,1,1-2,4.9,4.9,0,0,1,2.33-2,37.76,37.76,0,0,1,6.22-2.23,12.36,12.36,0,0,1,4.73-.24A2.92,2.92,0,0,1,69.37,36a9.72,9.72,0,0,1-.93,7.4A7.32,7.32,0,0,1,64,47.26a12.29,12.29,0,0,1-4.38.57C58.72,47.8,57.85,47.72,57,47.66Zm1.13-4.95c0,.3,0,.59,0,.89a1.56,1.56,0,0,0,1.52,1.63,3.7,3.7,0,0,0,.88,0,2.4,2.4,0,0,0,2-1.24A17.43,17.43,0,0,0,64,39a2.11,2.11,0,0,0-.86-2.22,2.08,2.08,0,0,0-2.38,0,3.08,3.08,0,0,0-1.09,1.06C59,39.39,58,40.89,58.11,42.71Z"/><path class="cls-1" d="M138.18,52.19l1.17,1.68c-.11.08-.2.17-.3.23-2.49,1.5-5,3-7.47,4.52a2.83,2.83,0,0,1-2.64.25,13.69,13.69,0,0,1-2.19-1.12,17.55,17.55,0,0,1-3.74-3.3,3.21,3.21,0,0,1-.79-2,12.16,12.16,0,0,1,.56-4.28c.73-2.46,1.47-4.92,2.27-7.35a7.37,7.37,0,0,1,2.38-3.67,3.1,3.1,0,0,1,.58-.39c2.23-1,4.44-2,6.69-3a8.91,8.91,0,0,1,4.55-.56,3.06,3.06,0,0,1,2.67,2.28,8.6,8.6,0,0,1,.27,4.74,13,13,0,0,1-1.64,4,6.85,6.85,0,0,1-6,3.19,13.54,13.54,0,0,1-4.6-.67l-.47-.15a11.4,11.4,0,0,0-1.05,4.68,2.41,2.41,0,0,0,.28,1,3.9,3.9,0,0,0,.63,1c1.74,2,2.54,2,4.51,1.23a40.23,40.23,0,0,0,3.8-2A5.33,5.33,0,0,0,138.18,52.19Zm-5.07-7.52a2.51,2.51,0,0,0,2.25-1.22A16,16,0,0,0,137,38.31a2.06,2.06,0,0,0-.78-2,2.1,2.1,0,0,0-2.21-.2,3,3,0,0,0-1.55,1.49A11,11,0,0,0,131,42.72C131,44,131.62,44.66,133.11,44.67Z"/><path class="cls-1" d="M67.12,52.39l5-2.88c.32.8.57,1.59.93,2.32A12.46,12.46,0,0,0,74.4,54.1a1.5,1.5,0,0,0,2.62,0,4.47,4.47,0,0,0,1.1-3.59A1.94,1.94,0,0,0,77,49.05l-3.58-1.93a3.3,3.3,0,0,0-.32-.18,3.42,3.42,0,0,1-2-3.73,13.1,13.1,0,0,1,1.51-5.31A6.58,6.58,0,0,1,76.11,35a20.73,20.73,0,0,1,6.6-1.37,2.22,2.22,0,0,1,1.8.75c.76.82,1.46,1.7,2.14,2.58a13.33,13.33,0,0,1,.83,1.46L83.3,40.82l-.24-.5c-.45-.84-.84-1.71-1.36-2.5a2,2,0,0,0-3.45-.16,7,7,0,0,0-1.56,4.4,1.72,1.72,0,0,0,1.15,1.57c.94.49,1.89.94,2.84,1.41.37.19.75.37,1.12.57a8.44,8.44,0,0,1,1,.58c1.85,1.38,2,2.18,1.62,4.13a8.38,8.38,0,0,1-3.63,5.6,13.11,13.11,0,0,1-5.92,2.57,6.32,6.32,0,0,1-6.11-2.67A9.32,9.32,0,0,1,67.12,52.39Z"/></g></g></svg>